<svg width="1200" height="31" viewBox="0 0 1200 31" fill="none" xmlns="http://www.w3.org/2000/svg">
<path d="M375.979 23.184C374.477 23.184 373.166 22.8543 372.046 22.195C370.942 21.5203 370.091 20.562 369.493 19.32C368.911 18.0627 368.619 16.583 368.619 14.881C368.619 13.179 368.911 11.707 369.493 10.465C370.091 9.223 370.942 8.27233 372.046 7.613C373.166 6.93833 374.477 6.601 375.979 6.601C377.007 6.601 377.98 6.77733 378.9 7.13C379.836 7.46733 380.625 7.958 381.269 8.602C381.484 8.80133 381.591 9.02367 381.591 9.269C381.591 9.43767 381.538 9.58333 381.43 9.706C381.338 9.82867 381.231 9.89 381.108 9.89C380.955 9.89 380.779 9.81333 380.579 9.66C379.751 8.98533 379 8.51767 378.325 8.257C377.651 7.99633 376.861 7.866 375.956 7.866C374.101 7.866 372.66 8.47933 371.632 9.706C370.62 10.9327 370.114 12.6577 370.114 14.881C370.114 17.1197 370.62 18.8523 371.632 20.079C372.66 21.3057 374.101 21.919 375.956 21.919C376.861 21.919 377.651 21.7887 378.325 21.528C379 21.2673 379.751 20.7997 380.579 20.125C380.809 19.9717 380.986 19.895 381.108 19.895C381.231 19.895 381.338 19.9563 381.43 20.079C381.538 20.2017 381.591 20.3473 381.591 20.516C381.591 20.7613 381.484 20.9837 381.269 21.183C380.625 21.827 379.836 22.3253 378.9 22.678C377.98 23.0153 377.007 23.184 375.979 23.184ZM389.774 11.569C392.457 11.569 393.799 13.0103 393.799 15.893V22.402C393.799 22.6167 393.738 22.793 393.615 22.931C393.492 23.0537 393.324 23.115 393.109 23.115C392.894 23.115 392.718 23.0537 392.58 22.931C392.457 22.793 392.396 22.6167 392.396 22.402V15.985C392.396 14.881 392.174 14.076 391.729 13.57C391.284 13.064 390.579 12.811 389.613 12.811C388.509 12.811 387.62 13.1483 386.945 13.823C386.286 14.4977 385.956 15.4023 385.956 16.537V22.402C385.956 22.6167 385.895 22.793 385.772 22.931C385.649 23.0537 385.481 23.115 385.266 23.115C385.051 23.115 384.875 23.0537 384.737 22.931C384.614 22.793 384.553 22.6167 384.553 22.402V7.383C384.553 7.16833 384.614 6.99967 384.737 6.877C384.875 6.739 385.051 6.67 385.266 6.67C385.481 6.67 385.649 6.739 385.772 6.877C385.895 6.99967 385.956 7.16833 385.956 7.383V13.708C386.309 13.018 386.815 12.489 387.474 12.121C388.149 11.753 388.915 11.569 389.774 11.569ZM406.001 20.608C406.139 20.608 406.254 20.6693 406.346 20.792C406.454 20.8993 406.507 21.0297 406.507 21.183C406.507 21.5203 406.247 21.85 405.725 22.172C404.621 22.8313 403.456 23.161 402.229 23.161C400.527 23.161 399.186 22.6473 398.204 21.62C397.223 20.5927 396.732 19.182 396.732 17.388C396.732 16.238 396.947 15.226 397.376 14.352C397.821 13.4627 398.434 12.7803 399.216 12.305C400.014 11.8143 400.926 11.569 401.953 11.569C403.395 11.569 404.529 12.0367 405.357 12.972C406.201 13.892 406.622 15.1647 406.622 16.79C406.622 17.066 406.561 17.273 406.438 17.411C406.316 17.5337 406.116 17.595 405.84 17.595H398.181C398.227 19.0057 398.595 20.079 399.285 20.815C399.975 21.551 400.949 21.919 402.206 21.919C402.866 21.919 403.418 21.8347 403.862 21.666C404.307 21.482 404.782 21.2443 405.288 20.953C405.626 20.723 405.863 20.608 406.001 20.608ZM401.953 12.719C400.88 12.719 400.021 13.0563 399.377 13.731C398.733 14.4057 398.35 15.3487 398.227 16.56H405.334C405.304 15.3333 404.997 14.3903 404.414 13.731C403.832 13.0563 403.011 12.719 401.953 12.719ZM414.014 23.161C412.987 23.161 412.082 22.9233 411.3 22.448C410.518 21.9727 409.912 21.298 409.483 20.424C409.054 19.55 408.839 18.5457 408.839 17.411C408.839 16.261 409.054 15.249 409.483 14.375C409.928 13.4857 410.541 12.7957 411.323 12.305C412.12 11.8143 413.033 11.569 414.06 11.569C414.643 11.569 415.21 11.6457 415.762 11.799C416.314 11.9523 416.805 12.1823 417.234 12.489C417.51 12.6883 417.702 12.8723 417.809 13.041C417.932 13.1943 417.993 13.363 417.993 13.547C417.993 13.7157 417.947 13.8537 417.855 13.961C417.763 14.0683 417.648 14.122 417.51 14.122C417.357 14.122 417.111 13.9917 416.774 13.731C416.375 13.4397 415.977 13.2097 415.578 13.041C415.179 12.8723 414.696 12.788 414.129 12.788C412.933 12.788 411.998 13.202 411.323 14.03C410.648 14.8427 410.311 15.9697 410.311 17.411C410.311 18.837 410.641 19.9487 411.3 20.746C411.975 21.528 412.91 21.919 414.106 21.919C414.689 21.919 415.172 21.8347 415.555 21.666C415.954 21.4973 416.383 21.2673 416.843 20.976C416.981 20.884 417.111 20.7997 417.234 20.723C417.372 20.6463 417.479 20.608 417.556 20.608C417.709 20.608 417.832 20.6617 417.924 20.769C418.016 20.8763 418.062 21.0067 418.062 21.16C418.062 21.344 418.008 21.505 417.901 21.643C417.794 21.781 417.587 21.9573 417.28 22.172C416.866 22.4787 416.36 22.724 415.762 22.908C415.179 23.0767 414.597 23.161 414.014 23.161ZM428.932 21.896C429.131 22.08 429.231 22.2717 429.231 22.471C429.231 22.6397 429.17 22.793 429.047 22.931C428.924 23.0537 428.779 23.115 428.61 23.115C428.457 23.115 428.296 23.046 428.127 22.908L421.871 17.572V22.402C421.871 22.632 421.802 22.8083 421.664 22.931C421.541 23.0537 421.38 23.115 421.181 23.115C420.966 23.115 420.79 23.0537 420.652 22.931C420.529 22.8083 420.468 22.632 420.468 22.402V7.383C420.468 7.153 420.529 6.97667 420.652 6.854C420.79 6.73133 420.966 6.67 421.181 6.67C421.38 6.67 421.541 6.73133 421.664 6.854C421.802 6.97667 421.871 7.153 421.871 7.383V16.997L427.598 11.845C427.767 11.707 427.928 11.638 428.081 11.638C428.265 11.638 428.418 11.707 428.541 11.845C428.679 11.9677 428.748 12.121 428.748 12.305C428.748 12.535 428.656 12.719 428.472 12.857L423.504 17.25L428.932 21.896ZM441.842 23.161C440.815 23.161 439.91 22.9233 439.128 22.448C438.362 21.9727 437.764 21.298 437.334 20.424C436.905 19.55 436.69 18.5303 436.69 17.365C436.69 16.1997 436.905 15.18 437.334 14.306C437.764 13.432 438.362 12.7573 439.128 12.282C439.91 11.8067 440.815 11.569 441.842 11.569C442.854 11.569 443.751 11.8067 444.533 12.282C445.315 12.7573 445.913 13.432 446.327 14.306C446.757 15.18 446.971 16.1997 446.971 17.365C446.971 18.5303 446.757 19.55 446.327 20.424C445.913 21.298 445.315 21.9727 444.533 22.448C443.751 22.9233 442.854 23.161 441.842 23.161ZM441.819 21.919C443 21.919 443.912 21.528 444.556 20.746C445.2 19.964 445.522 18.837 445.522 17.365C445.522 15.9237 445.193 14.8043 444.533 14.007C443.889 13.1943 442.992 12.788 441.842 12.788C440.677 12.788 439.772 13.1943 439.128 14.007C438.484 14.8043 438.162 15.9237 438.162 17.365C438.162 18.837 438.477 19.964 439.105 20.746C439.734 21.528 440.639 21.919 441.819 21.919ZM458.263 11.615C458.477 11.615 458.646 11.684 458.769 11.822C458.907 11.9447 458.976 12.1133 458.976 12.328V22.402C458.976 22.6167 458.907 22.793 458.769 22.931C458.646 23.0537 458.477 23.115 458.263 23.115C458.063 23.115 457.902 23.0537 457.78 22.931C457.657 22.793 457.596 22.6167 457.596 22.402V20.999C457.243 21.7043 456.737 22.241 456.078 22.609C455.434 22.977 454.698 23.161 453.87 23.161C452.551 23.161 451.554 22.8007 450.88 22.08C450.22 21.344 449.891 20.263 449.891 18.837V12.328C449.891 12.1133 449.952 11.9447 450.075 11.822C450.213 11.684 450.389 11.615 450.604 11.615C450.818 11.615 450.987 11.684 451.11 11.822C451.232 11.9447 451.294 12.1133 451.294 12.328V18.745C451.294 19.8337 451.508 20.6387 451.938 21.16C452.382 21.666 453.072 21.919 454.008 21.919C455.081 21.919 455.94 21.5817 456.584 20.907C457.243 20.217 457.573 19.3047 457.573 18.17V12.328C457.573 12.1133 457.634 11.9447 457.757 11.822C457.879 11.684 458.048 11.615 458.263 11.615ZM467.503 21.942C467.932 21.988 468.147 22.1873 468.147 22.54C468.147 22.724 468.078 22.8697 467.94 22.977C467.802 23.0843 467.579 23.1303 467.273 23.115L466.629 23.069C465.463 22.9923 464.597 22.6397 464.03 22.011C463.478 21.367 463.202 20.3933 463.202 19.09V12.972H461.454C461.27 12.972 461.124 12.926 461.017 12.834C460.909 12.7267 460.856 12.5887 460.856 12.42C460.856 12.2513 460.909 12.1133 461.017 12.006C461.124 11.8987 461.27 11.845 461.454 11.845H463.202V8.993C463.202 8.763 463.263 8.58667 463.386 8.464C463.508 8.34133 463.677 8.28 463.892 8.28C464.106 8.28 464.275 8.34133 464.398 8.464C464.536 8.58667 464.605 8.763 464.605 8.993V11.845H467.388C467.587 11.845 467.74 11.8987 467.848 12.006C467.955 12.1133 468.009 12.2513 468.009 12.42C468.009 12.5887 467.955 12.7267 467.848 12.834C467.74 12.926 467.587 12.972 467.388 12.972H464.605V19.159C464.605 20.1097 464.789 20.792 465.157 21.206C465.525 21.6047 466.1 21.8347 466.882 21.896L467.503 21.942ZM480.385 11.569C481.734 11.569 482.739 11.9217 483.398 12.627C484.073 13.3323 484.41 14.398 484.41 15.824V22.379C484.41 22.5937 484.349 22.77 484.226 22.908C484.103 23.0307 483.935 23.092 483.72 23.092C483.505 23.092 483.337 23.0307 483.214 22.908C483.091 22.77 483.03 22.5937 483.03 22.379V20.999C482.708 21.689 482.24 22.2257 481.627 22.609C481.014 22.977 480.308 23.161 479.511 23.161C478.79 23.161 478.131 23.0153 477.533 22.724C476.935 22.4327 476.46 22.0263 476.107 21.505C475.77 20.9837 475.601 20.4087 475.601 19.78C475.601 18.952 475.816 18.308 476.245 17.848C476.674 17.388 477.387 17.0583 478.384 16.859C479.381 16.6597 480.768 16.56 482.547 16.56H483.03V15.709C483.03 14.697 482.823 13.961 482.409 13.501C481.995 13.0257 481.343 12.788 480.454 12.788C479.319 12.788 478.238 13.087 477.211 13.685C477.165 13.7157 477.042 13.8 476.843 13.938C476.659 14.0607 476.498 14.122 476.36 14.122C476.207 14.122 476.076 14.0683 475.969 13.961C475.877 13.8383 475.831 13.6927 475.831 13.524C475.831 13.1867 476.099 12.857 476.636 12.535C477.173 12.2283 477.771 11.9907 478.43 11.822C479.089 11.6533 479.741 11.569 480.385 11.569ZM479.626 21.942C480.623 21.942 481.435 21.6047 482.064 20.93C482.708 20.2553 483.03 19.3967 483.03 18.354V17.595H482.593C481.121 17.595 479.994 17.6563 479.212 17.779C478.43 17.9017 477.878 18.1163 477.556 18.423C477.234 18.7143 477.073 19.1437 477.073 19.711C477.073 20.355 477.318 20.8917 477.809 21.321C478.3 21.735 478.905 21.942 479.626 21.942ZM498.47 7.958C497.596 8.01933 496.937 8.29533 496.492 8.786C496.048 9.26133 495.825 9.99733 495.825 10.994V11.845H498.608C498.808 11.845 498.961 11.8987 499.068 12.006C499.176 12.1133 499.229 12.2513 499.229 12.42C499.229 12.5887 499.176 12.7267 499.068 12.834C498.961 12.926 498.808 12.972 498.608 12.972H495.825V22.402C495.825 22.6167 495.756 22.793 495.618 22.931C495.48 23.0537 495.312 23.115 495.112 23.115C494.898 23.115 494.729 23.0537 494.606 22.931C494.484 22.8083 494.422 22.632 494.422 22.402V12.972H492.674C492.49 12.972 492.345 12.926 492.237 12.834C492.13 12.7267 492.076 12.5887 492.076 12.42C492.076 12.2513 492.13 12.1133 492.237 12.006C492.345 11.8987 492.49 11.845 492.674 11.845H494.422V11.27C494.422 9.92067 494.744 8.86267 495.388 8.096C496.048 7.32933 496.998 6.9 498.24 6.808L498.838 6.762C499.436 6.716 499.735 6.89233 499.735 7.291C499.735 7.659 499.513 7.866 499.068 7.912L498.47 7.958ZM509.569 20.608C509.707 20.608 509.822 20.6693 509.914 20.792C510.021 20.8993 510.075 21.0297 510.075 21.183C510.075 21.5203 509.814 21.85 509.293 22.172C508.189 22.8313 507.024 23.161 505.797 23.161C504.095 23.161 502.753 22.6473 501.772 21.62C500.791 20.5927 500.3 19.182 500.3 17.388C500.3 16.238 500.515 15.226 500.944 14.352C501.389 13.4627 502.002 12.7803 502.784 12.305C503.581 11.8143 504.494 11.569 505.521 11.569C506.962 11.569 508.097 12.0367 508.925 12.972C509.768 13.892 510.19 15.1647 510.19 16.79C510.19 17.066 510.129 17.273 510.006 17.411C509.883 17.5337 509.684 17.595 509.408 17.595H501.749C501.795 19.0057 502.163 20.079 502.853 20.815C503.543 21.551 504.517 21.919 505.774 21.919C506.433 21.919 506.985 21.8347 507.43 21.666C507.875 21.482 508.35 21.2443 508.856 20.953C509.193 20.723 509.431 20.608 509.569 20.608ZM505.521 12.719C504.448 12.719 503.589 13.0563 502.945 13.731C502.301 14.4057 501.918 15.3487 501.795 16.56H508.902C508.871 15.3333 508.565 14.3903 507.982 13.731C507.399 13.0563 506.579 12.719 505.521 12.719ZM528.371 12.075C528.478 11.7837 528.67 11.638 528.946 11.638C529.13 11.638 529.291 11.6993 529.429 11.822C529.567 11.9447 529.636 12.098 529.636 12.282C529.636 12.3127 529.621 12.3893 529.59 12.512L525.749 22.54C525.688 22.7087 525.58 22.839 525.427 22.931C525.289 23.023 525.136 23.069 524.967 23.069C524.798 23.069 524.637 23.023 524.484 22.931C524.346 22.839 524.246 22.7087 524.185 22.54L520.781 13.754L517.4 22.54C517.339 22.7087 517.231 22.839 517.078 22.931C516.94 23.023 516.787 23.069 516.618 23.069C516.449 23.069 516.288 23.023 516.135 22.931C515.997 22.839 515.897 22.7087 515.836 22.54L511.972 12.535C511.941 12.443 511.926 12.3663 511.926 12.305C511.926 12.121 512.003 11.96 512.156 11.822C512.325 11.684 512.501 11.615 512.685 11.615C512.976 11.615 513.176 11.7607 513.283 12.052L516.641 21.16L520.114 12.121C520.175 11.9523 520.275 11.822 520.413 11.73C520.551 11.638 520.689 11.592 520.827 11.592C520.98 11.592 521.118 11.638 521.241 11.73C521.379 11.822 521.479 11.9523 521.54 12.121L524.967 21.137L528.371 12.075ZM542.467 23.161C541.44 23.161 540.535 22.9233 539.753 22.448C538.987 21.9727 538.389 21.298 537.959 20.424C537.53 19.55 537.315 18.5303 537.315 17.365C537.315 16.1997 537.53 15.18 537.959 14.306C538.389 13.432 538.987 12.7573 539.753 12.282C540.535 11.8067 541.44 11.569 542.467 11.569C543.479 11.569 544.376 11.8067 545.158 12.282C545.94 12.7573 546.538 13.432 546.952 14.306C547.382 15.18 547.596 16.1997 547.596 17.365C547.596 18.5303 547.382 19.55 546.952 20.424C546.538 21.298 545.94 21.9727 545.158 22.448C544.376 22.9233 543.479 23.161 542.467 23.161ZM542.444 21.919C543.625 21.919 544.537 21.528 545.181 20.746C545.825 19.964 546.147 18.837 546.147 17.365C546.147 15.9237 545.818 14.8043 545.158 14.007C544.514 13.1943 543.617 12.788 542.467 12.788C541.302 12.788 540.397 13.1943 539.753 14.007C539.109 14.8043 538.787 15.9237 538.787 17.365C538.787 18.837 539.102 19.964 539.73 20.746C540.359 21.528 541.264 21.919 542.444 21.919ZM555.162 7.958C554.288 8.01933 553.628 8.29533 553.184 8.786C552.739 9.26133 552.517 9.99733 552.517 10.994V11.845H555.3C555.499 11.845 555.652 11.8987 555.76 12.006C555.867 12.1133 555.921 12.2513 555.921 12.42C555.921 12.5887 555.867 12.7267 555.76 12.834C555.652 12.926 555.499 12.972 555.3 12.972H552.517V22.402C552.517 22.6167 552.448 22.793 552.31 22.931C552.172 23.0537 552.003 23.115 551.804 23.115C551.589 23.115 551.42 23.0537 551.298 22.931C551.175 22.8083 551.114 22.632 551.114 22.402V12.972H549.366C549.182 12.972 549.036 12.926 548.929 12.834C548.821 12.7267 548.768 12.5887 548.768 12.42C548.768 12.2513 548.821 12.1133 548.929 12.006C549.036 11.8987 549.182 11.845 549.366 11.845H551.114V11.27C551.114 9.92067 551.436 8.86267 552.08 8.096C552.739 7.32933 553.69 6.9 554.932 6.808L555.53 6.762C556.128 6.716 556.427 6.89233 556.427 7.291C556.427 7.659 556.204 7.866 555.76 7.912L555.162 7.958ZM568.464 21.942C568.894 21.988 569.108 22.1873 569.108 22.54C569.108 22.724 569.039 22.8697 568.901 22.977C568.763 23.0843 568.541 23.1303 568.234 23.115L567.59 23.069C566.425 22.9923 565.559 22.6397 564.991 22.011C564.439 21.367 564.163 20.3933 564.163 19.09V12.972H562.415C562.231 12.972 562.086 12.926 561.978 12.834C561.871 12.7267 561.817 12.5887 561.817 12.42C561.817 12.2513 561.871 12.1133 561.978 12.006C562.086 11.8987 562.231 11.845 562.415 11.845H564.163V8.993C564.163 8.763 564.225 8.58667 564.347 8.464C564.47 8.34133 564.639 8.28 564.853 8.28C565.068 8.28 565.237 8.34133 565.359 8.464C565.497 8.58667 565.566 8.763 565.566 8.993V11.845H568.349C568.549 11.845 568.702 11.8987 568.809 12.006C568.917 12.1133 568.97 12.2513 568.97 12.42C568.97 12.5887 568.917 12.7267 568.809 12.834C568.702 12.926 568.549 12.972 568.349 12.972H565.566V19.159C565.566 20.1097 565.75 20.792 566.118 21.206C566.486 21.6047 567.061 21.8347 567.843 21.896L568.464 21.942ZM576.357 11.569C579.04 11.569 580.382 13.0103 580.382 15.893V22.402C580.382 22.6167 580.321 22.793 580.198 22.931C580.075 23.0537 579.907 23.115 579.692 23.115C579.477 23.115 579.301 23.0537 579.163 22.931C579.04 22.793 578.979 22.6167 578.979 22.402V15.985C578.979 14.881 578.757 14.076 578.312 13.57C577.867 13.064 577.162 12.811 576.196 12.811C575.092 12.811 574.203 13.1483 573.528 13.823C572.869 14.4977 572.539 15.4023 572.539 16.537V22.402C572.539 22.6167 572.478 22.793 572.355 22.931C572.232 23.0537 572.064 23.115 571.849 23.115C571.634 23.115 571.458 23.0537 571.32 22.931C571.197 22.793 571.136 22.6167 571.136 22.402V7.383C571.136 7.16833 571.197 6.99967 571.32 6.877C571.458 6.739 571.634 6.67 571.849 6.67C572.064 6.67 572.232 6.739 572.355 6.877C572.478 6.99967 572.539 7.16833 572.539 7.383V13.708C572.892 13.018 573.398 12.489 574.057 12.121C574.732 11.753 575.498 11.569 576.357 11.569ZM592.584 20.608C592.722 20.608 592.837 20.6693 592.929 20.792C593.037 20.8993 593.09 21.0297 593.09 21.183C593.09 21.5203 592.83 21.85 592.308 22.172C591.204 22.8313 590.039 23.161 588.812 23.161C587.11 23.161 585.769 22.6473 584.787 21.62C583.806 20.5927 583.315 19.182 583.315 17.388C583.315 16.238 583.53 15.226 583.959 14.352C584.404 13.4627 585.017 12.7803 585.799 12.305C586.597 11.8143 587.509 11.569 588.536 11.569C589.978 11.569 591.112 12.0367 591.94 12.972C592.784 13.892 593.205 15.1647 593.205 16.79C593.205 17.066 593.144 17.273 593.021 17.411C592.899 17.5337 592.699 17.595 592.423 17.595H584.764C584.81 19.0057 585.178 20.079 585.868 20.815C586.558 21.551 587.532 21.919 588.789 21.919C589.449 21.919 590.001 21.8347 590.445 21.666C590.89 21.482 591.365 21.2443 591.871 20.953C592.209 20.723 592.446 20.608 592.584 20.608ZM588.536 12.719C587.463 12.719 586.604 13.0563 585.96 13.731C585.316 14.4057 584.933 15.3487 584.81 16.56H591.917C591.887 15.3333 591.58 14.3903 590.997 13.731C590.415 13.0563 589.594 12.719 588.536 12.719ZM607.174 11.569C608.155 11.569 609.022 11.8143 609.773 12.305C610.524 12.7803 611.107 13.4627 611.521 14.352C611.935 15.226 612.142 16.2457 612.142 17.411C612.142 18.561 611.935 19.573 611.521 20.447C611.107 21.3057 610.524 21.9727 609.773 22.448C609.022 22.9233 608.155 23.161 607.174 23.161C606.269 23.161 605.487 22.9693 604.828 22.586C604.169 22.1873 603.67 21.6123 603.333 20.861V26.542C603.333 26.7567 603.272 26.9253 603.149 27.048C603.026 27.186 602.858 27.255 602.643 27.255C602.428 27.255 602.252 27.186 602.114 27.048C601.991 26.9253 601.93 26.7567 601.93 26.542V12.328C601.93 12.1133 601.991 11.9447 602.114 11.822C602.252 11.684 602.428 11.615 602.643 11.615C602.858 11.615 603.026 11.684 603.149 11.822C603.272 11.9447 603.333 12.1133 603.333 12.328V13.869C603.67 13.1177 604.169 12.5503 604.828 12.167C605.487 11.7683 606.269 11.569 607.174 11.569ZM606.967 21.919C608.148 21.919 609.06 21.528 609.704 20.746C610.363 19.9487 610.693 18.837 610.693 17.411C610.693 15.9543 610.363 14.8197 609.704 14.007C609.06 13.1943 608.155 12.788 606.99 12.788C605.825 12.788 604.92 13.1867 604.276 13.984C603.647 14.7813 603.333 15.9083 603.333 17.365C603.333 18.8217 603.647 19.9487 604.276 20.746C604.905 21.528 605.802 21.919 606.967 21.919ZM620.312 11.615C620.604 11.5997 620.811 11.638 620.933 11.73C621.056 11.822 621.117 11.9753 621.117 12.19C621.117 12.5733 620.887 12.788 620.427 12.834L619.737 12.903C618.649 13.0103 617.836 13.4013 617.299 14.076C616.778 14.7507 616.517 15.5403 616.517 16.445V22.402C616.517 22.632 616.456 22.8083 616.333 22.931C616.211 23.0537 616.042 23.115 615.827 23.115C615.613 23.115 615.436 23.0537 615.298 22.931C615.176 22.8083 615.114 22.632 615.114 22.402V12.328C615.114 12.098 615.176 11.9217 615.298 11.799C615.436 11.6763 615.613 11.615 615.827 11.615C616.027 11.615 616.188 11.6763 616.31 11.799C616.433 11.9217 616.494 12.0903 616.494 12.305V13.8C617.123 12.4813 618.288 11.7607 619.99 11.638L620.312 11.615ZM627.123 23.161C626.095 23.161 625.191 22.9233 624.409 22.448C623.642 21.9727 623.044 21.298 622.615 20.424C622.185 19.55 621.971 18.5303 621.971 17.365C621.971 16.1997 622.185 15.18 622.615 14.306C623.044 13.432 623.642 12.7573 624.409 12.282C625.191 11.8067 626.095 11.569 627.123 11.569C628.135 11.569 629.032 11.8067 629.814 12.282C630.596 12.7573 631.194 13.432 631.608 14.306C632.037 15.18 632.252 16.1997 632.252 17.365C632.252 18.5303 632.037 19.55 631.608 20.424C631.194 21.298 630.596 21.9727 629.814 22.448C629.032 22.9233 628.135 23.161 627.123 23.161ZM627.1 21.919C628.28 21.919 629.193 21.528 629.837 20.746C630.481 19.964 630.803 18.837 630.803 17.365C630.803 15.9237 630.473 14.8043 629.814 14.007C629.17 13.1943 628.273 12.788 627.123 12.788C625.957 12.788 625.053 13.1943 624.409 14.007C623.765 14.8043 623.443 15.9237 623.443 17.365C623.443 18.837 623.757 19.964 624.386 20.746C625.014 21.528 625.919 21.919 627.1 21.919ZM632.572 27.186C631.974 27.232 631.675 27.048 631.675 26.634C631.675 26.2813 631.897 26.082 632.342 26.036L632.963 25.99C633.73 25.944 634.297 25.714 634.665 25.3C635.033 24.9013 635.217 24.2267 635.217 23.276V12.328C635.217 12.098 635.278 11.9217 635.401 11.799C635.539 11.6763 635.715 11.615 635.93 11.615C636.145 11.615 636.313 11.6763 636.436 11.799C636.559 11.9217 636.62 12.098 636.62 12.328V23.207C636.62 24.5103 636.344 25.4687 635.792 26.082C635.24 26.7107 634.374 27.0633 633.193 27.14L632.572 27.186ZM635.93 9.016C635.623 9.016 635.37 8.924 635.171 8.74C634.987 8.556 634.895 8.31833 634.895 8.027C634.895 7.72033 634.987 7.475 635.171 7.291C635.37 7.107 635.623 7.015 635.93 7.015C636.237 7.015 636.482 7.107 636.666 7.291C636.865 7.475 636.965 7.72033 636.965 8.027C636.965 8.31833 636.865 8.556 636.666 8.74C636.482 8.924 636.237 9.016 635.93 9.016ZM648.872 20.608C649.01 20.608 649.125 20.6693 649.217 20.792C649.324 20.8993 649.378 21.0297 649.378 21.183C649.378 21.5203 649.117 21.85 648.596 22.172C647.492 22.8313 646.326 23.161 645.1 23.161C643.398 23.161 642.056 22.6473 641.075 21.62C640.093 20.5927 639.603 19.182 639.603 17.388C639.603 16.238 639.817 15.226 640.247 14.352C640.691 13.4627 641.305 12.7803 642.087 12.305C642.884 11.8143 643.796 11.569 644.824 11.569C646.265 11.569 647.4 12.0367 648.228 12.972C649.071 13.892 649.493 15.1647 649.493 16.79C649.493 17.066 649.431 17.273 649.309 17.411C649.186 17.5337 648.987 17.595 648.711 17.595H641.052C641.098 19.0057 641.466 20.079 642.156 20.815C642.846 21.551 643.819 21.919 645.077 21.919C645.736 21.919 646.288 21.8347 646.733 21.666C647.177 21.482 647.653 21.2443 648.159 20.953C648.496 20.723 648.734 20.608 648.872 20.608ZM644.824 12.719C643.75 12.719 642.892 13.0563 642.248 13.731C641.604 14.4057 641.22 15.3487 641.098 16.56H648.205C648.174 15.3333 647.867 14.3903 647.285 13.731C646.702 13.0563 645.882 12.719 644.824 12.719ZM656.884 23.161C655.857 23.161 654.952 22.9233 654.17 22.448C653.388 21.9727 652.782 21.298 652.353 20.424C651.924 19.55 651.709 18.5457 651.709 17.411C651.709 16.261 651.924 15.249 652.353 14.375C652.798 13.4857 653.411 12.7957 654.193 12.305C654.99 11.8143 655.903 11.569 656.93 11.569C657.513 11.569 658.08 11.6457 658.632 11.799C659.184 11.9523 659.675 12.1823 660.104 12.489C660.38 12.6883 660.572 12.8723 660.679 13.041C660.802 13.1943 660.863 13.363 660.863 13.547C660.863 13.7157 660.817 13.8537 660.725 13.961C660.633 14.0683 660.518 14.122 660.38 14.122C660.227 14.122 659.981 13.9917 659.644 13.731C659.245 13.4397 658.847 13.2097 658.448 13.041C658.049 12.8723 657.566 12.788 656.999 12.788C655.803 12.788 654.868 13.202 654.193 14.03C653.518 14.8427 653.181 15.9697 653.181 17.411C653.181 18.837 653.511 19.9487 654.17 20.746C654.845 21.528 655.78 21.919 656.976 21.919C657.559 21.919 658.042 21.8347 658.425 21.666C658.824 21.4973 659.253 21.2673 659.713 20.976C659.851 20.884 659.981 20.7997 660.104 20.723C660.242 20.6463 660.349 20.608 660.426 20.608C660.579 20.608 660.702 20.6617 660.794 20.769C660.886 20.8763 660.932 21.0067 660.932 21.16C660.932 21.344 660.878 21.505 660.771 21.643C660.664 21.781 660.457 21.9573 660.15 22.172C659.736 22.4787 659.23 22.724 658.632 22.908C658.049 23.0767 657.467 23.161 656.884 23.161ZM668.191 21.942C668.62 21.988 668.835 22.1873 668.835 22.54C668.835 22.724 668.766 22.8697 668.628 22.977C668.49 23.0843 668.268 23.1303 667.961 23.115L667.317 23.069C666.152 22.9923 665.285 22.6397 664.718 22.011C664.166 21.367 663.89 20.3933 663.89 19.09V12.972H662.142C661.958 12.972 661.812 12.926 661.705 12.834C661.598 12.7267 661.544 12.5887 661.544 12.42C661.544 12.2513 661.598 12.1133 661.705 12.006C661.812 11.8987 661.958 11.845 662.142 11.845H663.89V8.993C663.89 8.763 663.951 8.58667 664.074 8.464C664.197 8.34133 664.365 8.28 664.58 8.28C664.795 8.28 664.963 8.34133 665.086 8.464C665.224 8.58667 665.293 8.763 665.293 8.993V11.845H668.076C668.275 11.845 668.429 11.8987 668.536 12.006C668.643 12.1133 668.697 12.2513 668.697 12.42C668.697 12.5887 668.643 12.7267 668.536 12.834C668.429 12.926 668.275 12.972 668.076 12.972H665.293V19.159C665.293 20.1097 665.477 20.792 665.845 21.206C666.213 21.6047 666.788 21.8347 667.57 21.896L668.191 21.942ZM674.473 23.161C673.829 23.161 673.193 23.0767 672.564 22.908C671.951 22.724 671.407 22.4787 670.931 22.172C670.64 21.9727 670.433 21.804 670.31 21.666C670.203 21.5127 670.149 21.344 670.149 21.16C670.149 21.0067 670.195 20.8763 670.287 20.769C670.395 20.6617 670.517 20.608 670.655 20.608C670.793 20.608 671.031 20.723 671.368 20.953C671.813 21.2443 672.265 21.482 672.725 21.666C673.201 21.85 673.791 21.942 674.496 21.942C675.401 21.942 676.106 21.781 676.612 21.459C677.118 21.1217 677.371 20.6463 677.371 20.033C677.371 19.665 677.279 19.366 677.095 19.136C676.911 18.8907 676.605 18.6837 676.175 18.515C675.746 18.331 675.133 18.1547 674.335 17.986C672.971 17.6793 671.997 17.2883 671.414 16.813C670.847 16.3223 670.563 15.6707 670.563 14.858C670.563 13.8767 670.947 13.087 671.713 12.489C672.48 11.8757 673.477 11.569 674.703 11.569C675.301 11.569 675.869 11.6457 676.405 11.799C676.957 11.9523 677.433 12.1747 677.831 12.466C678.368 12.834 678.636 13.1943 678.636 13.547C678.636 13.7003 678.583 13.8383 678.475 13.961C678.383 14.0683 678.268 14.122 678.13 14.122C677.977 14.122 677.739 13.9993 677.417 13.754C677.003 13.4627 676.589 13.2327 676.175 13.064C675.777 12.88 675.263 12.788 674.634 12.788C673.837 12.788 673.201 12.972 672.725 13.34C672.25 13.6927 672.012 14.1757 672.012 14.789C672.012 15.1417 672.089 15.433 672.242 15.663C672.411 15.893 672.687 16.1 673.07 16.284C673.469 16.4527 674.036 16.6213 674.772 16.79C675.83 17.0353 676.643 17.296 677.21 17.572C677.778 17.848 678.184 18.1777 678.429 18.561C678.675 18.9443 678.797 19.435 678.797 20.033C678.797 20.9683 678.399 21.7273 677.601 22.31C676.819 22.8773 675.777 23.161 674.473 23.161ZM688.607 23.115C688.392 23.115 688.216 23.046 688.078 22.908C687.955 22.77 687.894 22.5937 687.894 22.379V7.406C687.894 7.19133 687.955 7.015 688.078 6.877C688.216 6.739 688.392 6.67 688.607 6.67C688.821 6.67 688.99 6.739 689.113 6.877C689.251 7.015 689.32 7.19133 689.32 7.406V22.379C689.32 22.5937 689.251 22.77 689.113 22.908C688.99 23.046 688.821 23.115 688.607 23.115ZM693.9 6.67C694.237 6.67 694.506 6.80033 694.705 7.061C694.92 7.30633 695.027 7.69733 695.027 8.234C695.027 9.32267 694.682 10.235 693.992 10.971C693.854 11.1243 693.701 11.201 693.532 11.201C693.394 11.201 693.271 11.155 693.164 11.063C693.057 10.971 693.003 10.856 693.003 10.718C693.003 10.6107 693.064 10.4803 693.187 10.327C693.57 9.89767 693.793 9.407 693.854 8.855C693.563 8.82433 693.325 8.717 693.141 8.533C692.972 8.33367 692.888 8.08067 692.888 7.774C692.888 7.452 692.98 7.19133 693.164 6.992C693.363 6.77733 693.609 6.67 693.9 6.67ZM706.52 12.029C706.643 11.753 706.842 11.615 707.118 11.615C707.287 11.615 707.44 11.6763 707.578 11.799C707.716 11.9217 707.785 12.0673 707.785 12.236C707.785 12.3433 707.762 12.443 707.716 12.535L703.162 22.54C703.086 22.7087 702.971 22.839 702.817 22.931C702.679 23.023 702.526 23.069 702.357 23.069C702.173 23.069 702.005 23.023 701.851 22.931C701.713 22.839 701.606 22.7087 701.529 22.54L696.952 12.535C696.906 12.443 696.883 12.351 696.883 12.259C696.883 12.075 696.96 11.9217 697.113 11.799C697.282 11.661 697.458 11.592 697.642 11.592C697.934 11.592 698.133 11.73 698.24 12.006L702.38 21.298L706.52 12.029ZM718.478 20.608C718.616 20.608 718.731 20.6693 718.823 20.792C718.93 20.8993 718.984 21.0297 718.984 21.183C718.984 21.5203 718.723 21.85 718.202 22.172C717.098 22.8313 715.933 23.161 714.706 23.161C713.004 23.161 711.662 22.6473 710.681 21.62C709.7 20.5927 709.209 19.182 709.209 17.388C709.209 16.238 709.424 15.226 709.853 14.352C710.298 13.4627 710.911 12.7803 711.693 12.305C712.49 11.8143 713.403 11.569 714.43 11.569C715.871 11.569 717.006 12.0367 717.834 12.972C718.677 13.892 719.099 15.1647 719.099 16.79C719.099 17.066 719.038 17.273 718.915 17.411C718.792 17.5337 718.593 17.595 718.317 17.595H710.658C710.704 19.0057 711.072 20.079 711.762 20.815C712.452 21.551 713.426 21.919 714.683 21.919C715.342 21.919 715.894 21.8347 716.339 21.666C716.784 21.482 717.259 21.2443 717.765 20.953C718.102 20.723 718.34 20.608 718.478 20.608ZM714.43 12.719C713.357 12.719 712.498 13.0563 711.854 13.731C711.21 14.4057 710.827 15.3487 710.704 16.56H717.811C717.78 15.3333 717.474 14.3903 716.891 13.731C716.308 13.0563 715.488 12.719 714.43 12.719ZM743.187 12.075C743.295 11.7837 743.486 11.638 743.762 11.638C743.946 11.638 744.107 11.6993 744.245 11.822C744.383 11.9447 744.452 12.098 744.452 12.282C744.452 12.3127 744.437 12.3893 744.406 12.512L740.565 22.54C740.504 22.7087 740.397 22.839 740.243 22.931C740.105 23.023 739.952 23.069 739.783 23.069C739.615 23.069 739.454 23.023 739.3 22.931C739.162 22.839 739.063 22.7087 739.001 22.54L735.597 13.754L732.216 22.54C732.155 22.7087 732.048 22.839 731.894 22.931C731.756 23.023 731.603 23.069 731.434 23.069C731.266 23.069 731.105 23.023 730.951 22.931C730.813 22.839 730.714 22.7087 730.652 22.54L726.788 12.535C726.758 12.443 726.742 12.3663 726.742 12.305C726.742 12.121 726.819 11.96 726.972 11.822C727.141 11.684 727.317 11.615 727.501 11.615C727.793 11.615 727.992 11.7607 728.099 12.052L731.457 21.16L734.93 12.121C734.992 11.9523 735.091 11.822 735.229 11.73C735.367 11.638 735.505 11.592 735.643 11.592C735.797 11.592 735.935 11.638 736.057 11.73C736.195 11.822 736.295 11.9523 736.356 12.121L739.783 21.137L743.187 12.075ZM751.377 23.161C750.349 23.161 749.445 22.9233 748.663 22.448C747.896 21.9727 747.298 21.298 746.869 20.424C746.439 19.55 746.225 18.5303 746.225 17.365C746.225 16.1997 746.439 15.18 746.869 14.306C747.298 13.432 747.896 12.7573 748.663 12.282C749.445 11.8067 750.349 11.569 751.377 11.569C752.389 11.569 753.286 11.8067 754.068 12.282C754.85 12.7573 755.448 13.432 755.862 14.306C756.291 15.18 756.506 16.1997 756.506 17.365C756.506 18.5303 756.291 19.55 755.862 20.424C755.448 21.298 754.85 21.9727 754.068 22.448C753.286 22.9233 752.389 23.161 751.377 23.161ZM751.354 21.919C752.534 21.919 753.447 21.528 754.091 20.746C754.735 19.964 755.057 18.837 755.057 17.365C755.057 15.9237 754.727 14.8043 754.068 14.007C753.424 13.1943 752.527 12.788 751.377 12.788C750.211 12.788 749.307 13.1943 748.663 14.007C748.019 14.8043 747.697 15.9237 747.697 17.365C747.697 18.837 748.011 19.964 748.64 20.746C749.268 21.528 750.173 21.919 751.354 21.919ZM764.669 11.615C764.96 11.5997 765.167 11.638 765.29 11.73C765.413 11.822 765.474 11.9753 765.474 12.19C765.474 12.5733 765.244 12.788 764.784 12.834L764.094 12.903C763.005 13.0103 762.193 13.4013 761.656 14.076C761.135 14.7507 760.874 15.5403 760.874 16.445V22.402C760.874 22.632 760.813 22.8083 760.69 22.931C760.567 23.0537 760.399 23.115 760.184 23.115C759.969 23.115 759.793 23.0537 759.655 22.931C759.532 22.8083 759.471 22.632 759.471 22.402V12.328C759.471 12.098 759.532 11.9217 759.655 11.799C759.793 11.6763 759.969 11.615 760.184 11.615C760.383 11.615 760.544 11.6763 760.667 11.799C760.79 11.9217 760.851 12.0903 760.851 12.305V13.8C761.48 12.4813 762.645 11.7607 764.347 11.638L764.669 11.615ZM775.729 21.896C775.928 22.08 776.028 22.2717 776.028 22.471C776.028 22.6397 775.966 22.793 775.844 22.931C775.721 23.0537 775.575 23.115 775.407 23.115C775.253 23.115 775.092 23.046 774.924 22.908L768.668 17.572V22.402C768.668 22.632 768.599 22.8083 768.461 22.931C768.338 23.0537 768.177 23.115 767.978 23.115C767.763 23.115 767.587 23.0537 767.449 22.931C767.326 22.8083 767.265 22.632 767.265 22.402V7.383C767.265 7.153 767.326 6.97667 767.449 6.854C767.587 6.73133 767.763 6.67 767.978 6.67C768.177 6.67 768.338 6.73133 768.461 6.854C768.599 6.97667 768.668 7.153 768.668 7.383V16.997L774.395 11.845C774.563 11.707 774.724 11.638 774.878 11.638C775.062 11.638 775.215 11.707 775.338 11.845C775.476 11.9677 775.545 12.121 775.545 12.305C775.545 12.535 775.453 12.719 775.269 12.857L770.301 17.25L775.729 21.896ZM786.737 20.608C786.875 20.608 786.99 20.6693 787.082 20.792C787.189 20.8993 787.243 21.0297 787.243 21.183C787.243 21.5203 786.982 21.85 786.461 22.172C785.357 22.8313 784.191 23.161 782.965 23.161C781.263 23.161 779.921 22.6473 778.94 21.62C777.958 20.5927 777.468 19.182 777.468 17.388C777.468 16.238 777.682 15.226 778.112 14.352C778.556 13.4627 779.17 12.7803 779.952 12.305C780.749 11.8143 781.661 11.569 782.689 11.569C784.13 11.569 785.265 12.0367 786.093 12.972C786.936 13.892 787.358 15.1647 787.358 16.79C787.358 17.066 787.296 17.273 787.174 17.411C787.051 17.5337 786.852 17.595 786.576 17.595H778.917C778.963 19.0057 779.331 20.079 780.021 20.815C780.711 21.551 781.684 21.919 782.942 21.919C783.601 21.919 784.153 21.8347 784.598 21.666C785.042 21.482 785.518 21.2443 786.024 20.953C786.361 20.723 786.599 20.608 786.737 20.608ZM782.689 12.719C781.615 12.719 780.757 13.0563 780.113 13.731C779.469 14.4057 779.085 15.3487 778.963 16.56H786.07C786.039 15.3333 785.732 14.3903 785.15 13.731C784.567 13.0563 783.747 12.719 782.689 12.719ZM799.073 6.67C799.288 6.67 799.457 6.739 799.579 6.877C799.717 6.99967 799.786 7.16833 799.786 7.383V22.379C799.786 22.5937 799.717 22.77 799.579 22.908C799.457 23.0307 799.288 23.092 799.073 23.092C798.859 23.092 798.69 23.0307 798.567 22.908C798.445 22.77 798.383 22.5937 798.383 22.379V20.861C798.046 21.6123 797.548 22.1873 796.888 22.586C796.229 22.9693 795.447 23.161 794.542 23.161C793.561 23.161 792.695 22.9233 791.943 22.448C791.192 21.9573 790.609 21.275 790.195 20.401C789.781 19.5117 789.574 18.4843 789.574 17.319C789.574 16.169 789.781 15.1647 790.195 14.306C790.609 13.432 791.192 12.7573 791.943 12.282C792.695 11.8067 793.561 11.569 794.542 11.569C795.447 11.569 796.229 11.7683 796.888 12.167C797.548 12.5503 798.046 13.1177 798.383 13.869V7.383C798.383 7.16833 798.445 6.99967 798.567 6.877C798.69 6.739 798.859 6.67 799.073 6.67ZM794.726 21.919C795.892 21.919 796.789 21.528 797.417 20.746C798.061 19.9487 798.383 18.8217 798.383 17.365C798.383 15.9083 798.069 14.7813 797.44 13.984C796.812 13.1867 795.915 12.788 794.749 12.788C793.569 12.788 792.656 13.1867 792.012 13.984C791.368 14.766 791.046 15.8777 791.046 17.319C791.046 18.7757 791.368 19.9103 792.012 20.723C792.656 21.5203 793.561 21.919 794.726 21.919ZM813.706 23.161C812.678 23.161 811.774 22.9233 810.992 22.448C810.225 21.9727 809.627 21.298 809.198 20.424C808.768 19.55 808.554 18.5303 808.554 17.365C808.554 16.1997 808.768 15.18 809.198 14.306C809.627 13.432 810.225 12.7573 810.992 12.282C811.774 11.8067 812.678 11.569 813.706 11.569C814.718 11.569 815.615 11.8067 816.397 12.282C817.179 12.7573 817.777 13.432 818.191 14.306C818.62 15.18 818.835 16.1997 818.835 17.365C818.835 18.5303 818.62 19.55 818.191 20.424C817.777 21.298 817.179 21.9727 816.397 22.448C815.615 22.9233 814.718 23.161 813.706 23.161ZM813.683 21.919C814.863 21.919 815.776 21.528 816.42 20.746C817.064 19.964 817.386 18.837 817.386 17.365C817.386 15.9237 817.056 14.8043 816.397 14.007C815.753 13.1943 814.856 12.788 813.706 12.788C812.54 12.788 811.636 13.1943 810.992 14.007C810.348 14.8043 810.026 15.9237 810.026 17.365C810.026 18.837 810.34 19.964 810.969 20.746C811.597 21.528 812.502 21.919 813.683 21.919ZM827.021 11.569C829.704 11.569 831.046 13.0103 831.046 15.893V22.402C831.046 22.6167 830.985 22.793 830.862 22.931C830.739 23.0537 830.571 23.115 830.356 23.115C830.141 23.115 829.965 23.0537 829.827 22.931C829.704 22.793 829.643 22.6167 829.643 22.402V15.985C829.643 14.881 829.421 14.076 828.976 13.57C828.531 13.064 827.826 12.811 826.86 12.811C825.756 12.811 824.867 13.1483 824.192 13.823C823.533 14.4977 823.203 15.4023 823.203 16.537V22.402C823.203 22.6167 823.142 22.793 823.019 22.931C822.896 23.0537 822.728 23.115 822.513 23.115C822.298 23.115 822.122 23.0537 821.984 22.931C821.861 22.793 821.8 22.6167 821.8 22.402V12.328C821.8 12.1133 821.861 11.9447 821.984 11.822C822.122 11.684 822.298 11.615 822.513 11.615C822.712 11.615 822.873 11.6763 822.996 11.799C823.119 11.9217 823.18 12.0903 823.18 12.305V13.754C823.533 13.0487 824.039 12.512 824.698 12.144C825.373 11.7607 826.147 11.569 827.021 11.569Z" fill="black"/>
</svg>
