<svg width="1200" height="526" viewBox="0 0 1200 526" fill="none" xmlns="http://www.w3.org/2000/svg">
<rect width="1200" height="526" rx="15" fill="url(#paint0_linear)"/>
<path d="M503.086 455.986C443.107 458.205 446.671 498.791 452.988 517.047C454.215 520.591 457.692 522.662 461.442 522.662H797.272C806.368 522.662 833.598 516.182 832.233 490.259C830.869 464.336 772.543 458.478 743.551 459.724C741.846 446.846 715.923 419.469 625.877 405.51C535.83 391.552 502.517 431.475 503.086 455.986Z" fill="url(#paint1_linear)"/>
<path d="M836.119 87.6767C788.913 89.8901 791.069 129.872 795.977 148.646C797.007 152.587 800.708 155.048 804.781 155.048H1070.7C1077.95 155.048 1099.66 148.5 1098.58 122.307C1097.49 96.1139 1050.98 90.1953 1027.86 91.4546C1026.5 78.442 1005.83 50.7799 934.03 36.6759C862.228 22.572 835.665 62.9109 836.119 87.6767Z" fill="url(#paint2_linear)"/>
<path d="M739.501 172.299C724.809 188.658 739.501 200.145 757.755 200.145C785.704 200.145 926.873 202.407 948.752 202.407C956.418 202.407 966.832 204.987 970.258 189.157C976.148 161.949 948.752 148.63 934.951 148.63C911.8 99.3776 817.414 92.4162 798.27 138.536C765.324 135.229 747.342 138.536 739.501 172.299Z" fill="url(#paint3_linear)"/>
<path d="M201.875 267.733C252.39 269.954 249.889 310.221 244.616 328.908C243.532 332.748 239.888 335.104 235.898 335.104H-48.2348C-55.9677 335.104 -79.1179 328.556 -77.9579 302.363C-76.798 276.17 -27.2111 270.251 -2.56265 271.51C-1.11275 258.498 20.9259 230.836 97.4812 216.732C174.036 202.628 202.358 242.967 201.875 267.733Z" fill="url(#paint4_linear)"/>
<path d="M298.222 339.851C313.887 356.21 298.222 367.697 278.76 367.697C248.961 367.697 98.4466 369.959 75.1185 369.959C66.9453 369.959 55.842 372.539 52.1888 356.71C45.9095 329.501 75.1185 316.182 89.8337 316.182C114.518 266.93 215.152 259.968 235.563 306.088C270.69 302.781 289.862 306.088 298.222 339.851Z" fill="url(#paint5_linear)"/>
<path d="M4.75898 482.022C-26.4338 516.605 4.75897 540.888 43.5135 540.888C102.852 540.888 402.566 545.67 449.019 545.67C465.294 545.67 487.403 551.124 494.678 517.661C507.182 460.143 449.019 431.985 419.717 431.985C370.565 327.866 170.175 313.149 129.53 410.646C59.5826 403.656 21.4058 410.646 4.75898 482.022Z" fill="url(#paint6_linear)"/>
<path d="M828.999 434.917C736.039 443.833 731.05 525.617 770.886 542.053C771.122 542.15 771.378 542.199 771.632 542.199H1317.12C1317.85 542.199 1318.53 541.781 1318.88 541.149C1368.43 451.709 1289.87 410.93 1239.89 422.239C1238.69 422.509 1237.52 421.651 1237.37 420.437C1226.39 332.134 1141.51 324.035 1100.37 337.215C1099.42 337.522 1098.39 337.086 1097.97 336.175C1088.54 315.943 1088.94 294.179 1035.08 270.24C956.03 235.107 919.365 298.875 918.77 343.226C918.75 344.727 917.155 345.772 915.707 345.371C904.024 342.134 882.397 346.236 863.776 352.766C827.044 365.646 824.171 412.536 830.855 432.032C831.304 433.343 830.379 434.785 828.999 434.917Z" fill="url(#paint7_linear)"/>
<path d="M463.625 211.71V224.24H453.79V210.45L450.5 211.71V224.24H448.68L447.665 226.305H450.5V236.49L453.79 235.3V226.305H463.625V236.49L466.88 235.3V210.45L463.625 211.71ZM474.705 214.965L473.55 215.385L472.115 208.105L475.895 206.81L474.705 214.965ZM475.86 233.06C475.86 233.41 475.942 233.702 476.105 233.935C476.292 234.145 476.549 234.25 476.875 234.25C477.132 234.25 477.412 234.133 477.715 233.9C478.042 233.667 478.369 233.328 478.695 232.885L479.255 233.41C478.719 234.413 478.065 235.125 477.295 235.545C476.549 235.965 475.86 236.175 475.23 236.175C474.39 236.175 473.737 235.907 473.27 235.37C472.827 234.833 472.605 233.923 472.605 232.64V219.9L475.86 218.64V233.06ZM494.121 218.5H498.986L497.936 220.74H494.121V233.06C494.121 233.41 494.226 233.702 494.436 233.935C494.646 234.145 494.926 234.25 495.276 234.25C495.766 234.25 496.443 233.795 497.306 232.885L497.796 233.41C497.353 234.297 496.816 234.962 496.186 235.405C495.58 235.825 494.996 236.082 494.436 236.175C493.9 236.292 493.631 236.303 493.631 236.21C493.655 236.21 493.69 236.198 493.736 236.175C493.783 236.175 493.853 236.175 493.946 236.175C491.893 236.175 490.866 234.997 490.866 232.64V220.74H488.241L489.326 218.5H490.866V210.45L494.121 209.19V218.5ZM505.661 228.545H505.801C506.034 227.262 506.442 225.827 507.026 224.24C507.632 222.63 508.437 221.218 509.441 220.005C510.444 218.792 511.622 218.185 512.976 218.185C513.699 218.185 514.224 218.453 514.551 218.99C514.901 219.503 515.099 220.087 515.146 220.74C515.216 221.393 515.251 222.257 515.251 223.33V233.06C515.251 233.34 515.332 233.608 515.496 233.865C515.682 234.122 515.962 234.25 516.336 234.25C516.942 234.25 517.561 233.795 518.191 232.885L518.611 233.41C518.284 234.18 517.759 234.833 517.036 235.37C516.336 235.907 515.624 236.175 514.901 236.175C513.081 236.175 512.171 234.997 512.171 232.64V223.365C512.171 223.062 512.101 222.782 511.961 222.525C511.844 222.268 511.634 222.14 511.331 222.14C510.141 222.14 509.114 223.073 508.251 224.94C507.387 226.783 506.722 228.825 506.256 231.065C505.789 233.282 505.556 234.787 505.556 235.58L502.441 236.49V204.99L505.661 203.66V228.545ZM530.806 218.185C532.066 218.185 533.116 218.523 533.956 219.2C534.796 219.877 535.216 220.88 535.216 222.21C535.216 223.283 534.633 224.485 533.466 225.815C532.323 227.122 530.969 228.323 529.406 229.42C527.866 230.517 526.548 231.287 525.451 231.73C526.034 232.663 526.699 233.317 527.446 233.69C528.193 234.04 529.068 234.215 530.071 234.215C531.191 234.215 532.299 233.935 533.396 233.375C534.516 232.792 535.438 232.045 536.161 231.135L536.581 231.87C535.438 233.34 534.224 234.472 532.941 235.265C531.658 236.035 530.083 236.42 528.216 236.42C526.793 236.42 525.521 236.07 524.401 235.37C523.281 234.67 522.406 233.737 521.776 232.57C521.146 231.38 520.831 230.097 520.831 228.72C520.831 226.993 521.298 225.313 522.231 223.68C523.164 222.047 524.401 220.728 525.941 219.725C527.481 218.698 529.103 218.185 530.806 218.185ZM528.986 220.39C527.959 220.39 527.038 220.717 526.221 221.37C525.428 222.023 524.798 222.863 524.331 223.89C523.888 224.917 523.666 225.978 523.666 227.075C523.666 228.522 524.004 229.758 524.681 230.785C525.661 230.342 526.723 229.677 527.866 228.79C529.009 227.88 529.978 226.9 530.771 225.85C531.564 224.8 531.961 223.843 531.961 222.98C531.961 221.253 530.969 220.39 528.986 220.39ZM547.202 222.77C546.152 223.867 545.242 225.302 544.472 227.075C543.725 228.825 543.352 230.423 543.352 231.87C543.352 233.13 543.62 234.192 544.157 235.055C544.717 235.895 545.604 236.315 546.817 236.315C547.797 236.315 548.73 236.058 549.617 235.545C550.527 235.032 551.297 234.367 551.927 233.55L551.542 233.025C550.819 233.515 550.107 233.76 549.407 233.76C548.31 233.76 547.482 233.375 546.922 232.605C546.362 231.835 546.082 230.902 546.082 229.805C546.082 228.032 546.537 226.352 547.447 224.765C548.357 223.178 549.512 221.638 550.912 220.145L550.352 219.655C548.719 220.682 547.225 221.195 545.872 221.195C545.079 221.195 544.355 220.845 543.702 220.145C543.049 219.422 542.547 218.628 542.197 217.765L539.362 220.95C539.525 221.417 539.969 221.953 540.692 222.56L538.347 227.46L539.642 228.055L541.917 223.05C542.314 223.213 542.64 223.318 542.897 223.365C543.154 223.412 543.504 223.435 543.947 223.435C545.09 223.435 546.14 223.178 547.097 222.665L547.202 222.77ZM564.507 218.185C565.767 218.185 566.817 218.523 567.657 219.2C568.497 219.877 568.917 220.88 568.917 222.21C568.917 223.283 568.334 224.485 567.167 225.815C566.024 227.122 564.67 228.323 563.107 229.42C561.567 230.517 560.249 231.287 559.152 231.73C559.735 232.663 560.4 233.317 561.147 233.69C561.894 234.04 562.769 234.215 563.772 234.215C564.892 234.215 566 233.935 567.097 233.375C568.217 232.792 569.139 232.045 569.862 231.135L570.282 231.87C569.139 233.34 567.925 234.472 566.642 235.265C565.359 236.035 563.784 236.42 561.917 236.42C560.494 236.42 559.222 236.07 558.102 235.37C556.982 234.67 556.107 233.737 555.477 232.57C554.847 231.38 554.532 230.097 554.532 228.72C554.532 226.993 554.999 225.313 555.932 223.68C556.865 222.047 558.102 220.728 559.642 219.725C561.182 218.698 562.804 218.185 564.507 218.185ZM562.687 220.39C561.66 220.39 560.739 220.717 559.922 221.37C559.129 222.023 558.499 222.863 558.032 223.89C557.589 224.917 557.367 225.978 557.367 227.075C557.367 228.522 557.705 229.758 558.382 230.785C559.362 230.342 560.424 229.677 561.567 228.79C562.71 227.88 563.679 226.9 564.472 225.85C565.265 224.8 565.662 223.843 565.662 222.98C565.662 221.253 564.67 220.39 562.687 220.39ZM574.673 230.785L576.388 230.26L577.788 211.08L573.203 212.41L574.673 230.785ZM577.648 234.53C577.648 233.947 577.438 233.445 577.018 233.025C576.598 232.605 576.108 232.395 575.548 232.395C574.965 232.395 574.463 232.605 574.043 233.025C573.623 233.445 573.413 233.947 573.413 234.53C573.413 235.113 573.611 235.603 574.008 236C574.428 236.397 574.941 236.595 575.548 236.595C576.108 236.595 576.598 236.397 577.018 236C577.438 235.603 577.648 235.113 577.648 234.53Z" fill="white"/>
<path d="M461.96 261.825V300.765H449.75V261.825H461.96ZM470.665 261.825H482.765L476.275 278.05H468.245L470.665 261.825ZM529.676 269.525C533.636 269.525 536.697 270.717 538.861 273.1C541.061 275.484 542.161 278.71 542.161 282.78V300.765H530.006V284.32C530.006 283 529.602 281.974 528.796 281.24C528.026 280.47 526.981 280.085 525.661 280.085C524.304 280.085 523.241 280.47 522.471 281.24C521.701 281.974 521.316 283 521.316 284.32V300.765H509.161V284.32C509.161 283 508.757 281.974 507.951 281.24C507.181 280.47 506.136 280.085 504.816 280.085C503.459 280.085 502.396 280.47 501.626 281.24C500.856 281.974 500.471 283 500.471 284.32V300.765H488.261V269.745H500.471V273.925C501.351 272.605 502.542 271.542 504.046 270.735C505.586 269.929 507.382 269.525 509.436 269.525C511.672 269.525 513.652 270.02 515.376 271.01C517.099 271.964 518.474 273.32 519.501 275.08C520.637 273.467 522.086 272.147 523.846 271.12C525.606 270.057 527.549 269.525 529.676 269.525ZM588.641 275.19C588.641 277.647 588.073 279.884 586.936 281.9C585.799 283.88 584.113 285.457 581.876 286.63C579.676 287.804 576.999 288.39 573.846 288.39H569.006V300.765H556.796V261.825H573.846C578.613 261.825 582.261 263.035 584.791 265.455C587.358 267.875 588.641 271.12 588.641 275.19ZM572.471 278.765C575.001 278.765 576.266 277.574 576.266 275.19C576.266 272.807 575.001 271.615 572.471 271.615H569.006V278.765H572.471ZM604.724 275.465C605.97 273.669 607.492 272.239 609.289 271.175C611.085 270.075 612.955 269.525 614.899 269.525V282.56H611.434C609.124 282.56 607.419 282.964 606.319 283.77C605.255 284.577 604.724 286.007 604.724 288.06V300.765H592.514V269.745H604.724V275.465ZM616.538 285.255C616.538 281.992 617.088 279.169 618.188 276.785C619.324 274.365 620.864 272.532 622.808 271.285C624.751 270.002 626.933 269.36 629.353 269.36C631.369 269.36 633.111 269.782 634.578 270.625C636.044 271.432 637.163 272.55 637.933 273.98V269.745H650.088V300.765H637.933V296.53C637.163 297.96 636.044 299.097 634.578 299.94C633.111 300.747 631.369 301.15 629.353 301.15C626.933 301.15 624.751 300.527 622.808 299.28C620.864 297.997 619.324 296.164 618.188 293.78C617.088 291.36 616.538 288.519 616.538 285.255ZM637.933 285.255C637.933 283.605 637.511 282.322 636.668 281.405C635.824 280.489 634.743 280.03 633.423 280.03C632.103 280.03 631.021 280.489 630.178 281.405C629.334 282.322 628.913 283.605 628.913 285.255C628.913 286.905 629.334 288.189 630.178 289.105C631.021 290.022 632.103 290.48 633.423 290.48C634.743 290.48 635.824 290.022 636.668 289.105C637.511 288.189 637.933 286.905 637.933 285.255ZM677.295 269.525C680.852 269.525 683.62 270.717 685.6 273.1C687.617 275.484 688.625 278.71 688.625 282.78V300.765H676.47V284.32C676.47 282.854 676.067 281.699 675.26 280.855C674.49 279.975 673.445 279.535 672.125 279.535C670.769 279.535 669.705 279.975 668.935 280.855C668.165 281.699 667.78 282.854 667.78 284.32V300.765H655.57V269.745H667.78V274.475C668.734 273.009 669.999 271.817 671.575 270.9C673.189 269.984 675.095 269.525 677.295 269.525ZM692.27 285.255C692.27 281.992 692.82 279.169 693.92 276.785C695.057 274.365 696.597 272.532 698.54 271.285C700.483 270.002 702.665 269.36 705.085 269.36C707.102 269.36 708.843 269.782 710.31 270.625C711.777 271.432 712.895 272.55 713.665 273.98V269.745H725.82V300.765H713.665V296.53C712.895 297.96 711.777 299.097 710.31 299.94C708.843 300.747 707.102 301.15 705.085 301.15C702.665 301.15 700.483 300.527 698.54 299.28C696.597 297.997 695.057 296.164 693.92 293.78C692.82 291.36 692.27 288.519 692.27 285.255ZM713.665 285.255C713.665 283.605 713.243 282.322 712.4 281.405C711.557 280.489 710.475 280.03 709.155 280.03C707.835 280.03 706.753 280.489 705.91 281.405C705.067 282.322 704.645 283.605 704.645 285.255C704.645 286.905 705.067 288.189 705.91 289.105C706.753 290.022 707.835 290.48 709.155 290.48C710.475 290.48 711.557 290.022 712.4 289.105C713.243 288.189 713.665 286.905 713.665 285.255ZM747.033 289.16L751.983 269.745H764.963L754.623 300.765H739.388L729.048 269.745H742.028L747.033 289.16Z" fill="white"/>
<path d="M470.023 330.625C470.13 330.334 470.33 330.188 470.621 330.188C470.805 330.188 470.966 330.25 471.104 330.372C471.257 330.495 471.334 330.648 471.334 330.832C471.334 330.863 471.319 330.94 471.288 331.062L465.952 346.15C465.891 346.319 465.783 346.449 465.63 346.541C465.492 346.633 465.339 346.679 465.17 346.679C465.017 346.679 464.871 346.633 464.733 346.541C464.595 346.449 464.495 346.319 464.434 346.15L459.627 332.534L454.774 346.15C454.713 346.319 454.613 346.449 454.475 346.541C454.337 346.633 454.184 346.679 454.015 346.679C453.862 346.679 453.716 346.633 453.578 346.541C453.44 346.449 453.34 346.319 453.279 346.15L447.943 331.062C447.912 330.94 447.897 330.855 447.897 330.809C447.897 330.625 447.966 330.48 448.104 330.372C448.242 330.25 448.403 330.188 448.587 330.188C448.725 330.188 448.848 330.227 448.955 330.303C449.062 330.38 449.147 330.487 449.208 330.625L454.061 344.563L458.891 330.809C458.952 330.625 459.044 330.487 459.167 330.395C459.305 330.303 459.451 330.257 459.604 330.257C459.773 330.257 459.926 330.311 460.064 330.418C460.202 330.51 460.302 330.648 460.363 330.832L465.17 344.563L470.023 330.625ZM481.339 344.149C481.477 344.149 481.592 344.211 481.684 344.333C481.792 344.441 481.845 344.571 481.845 344.724C481.845 345.062 481.585 345.391 481.063 345.713C479.959 346.373 478.794 346.702 477.567 346.702C475.865 346.702 474.524 346.189 473.542 345.161C472.561 344.134 472.07 342.723 472.07 340.929C472.07 339.779 472.285 338.767 472.714 337.893C473.159 337.004 473.772 336.322 474.554 335.846C475.352 335.356 476.264 335.11 477.291 335.11C478.733 335.11 479.867 335.578 480.695 336.513C481.539 337.433 481.96 338.706 481.96 340.331C481.96 340.607 481.899 340.814 481.776 340.952C481.654 341.075 481.454 341.136 481.178 341.136H473.519C473.565 342.547 473.933 343.62 474.623 344.356C475.313 345.092 476.287 345.46 477.544 345.46C478.204 345.46 478.756 345.376 479.2 345.207C479.645 345.023 480.12 344.786 480.626 344.494C480.964 344.264 481.201 344.149 481.339 344.149ZM477.291 336.26C476.218 336.26 475.359 336.598 474.715 337.272C474.071 337.947 473.688 338.89 473.565 340.101H480.672C480.642 338.875 480.335 337.932 479.752 337.272C479.17 336.598 478.349 336.26 477.291 336.26ZM485.603 346.656C485.388 346.656 485.212 346.595 485.074 346.472C484.951 346.35 484.89 346.173 484.89 345.943V330.924C484.89 330.694 484.951 330.518 485.074 330.395C485.212 330.273 485.388 330.211 485.603 330.211C485.802 330.211 485.963 330.273 486.086 330.395C486.224 330.518 486.293 330.694 486.293 330.924V345.943C486.293 346.173 486.224 346.35 486.086 346.472C485.963 346.595 485.802 346.656 485.603 346.656ZM494.45 346.702C493.423 346.702 492.518 346.465 491.736 345.989C490.954 345.514 490.349 344.839 489.919 343.965C489.49 343.091 489.275 342.087 489.275 340.952C489.275 339.802 489.49 338.79 489.919 337.916C490.364 337.027 490.977 336.337 491.759 335.846C492.557 335.356 493.469 335.11 494.496 335.11C495.079 335.11 495.646 335.187 496.198 335.34C496.75 335.494 497.241 335.724 497.67 336.03C497.946 336.23 498.138 336.414 498.245 336.582C498.368 336.736 498.429 336.904 498.429 337.088C498.429 337.257 498.383 337.395 498.291 337.502C498.199 337.61 498.084 337.663 497.946 337.663C497.793 337.663 497.548 337.533 497.21 337.272C496.812 336.981 496.413 336.751 496.014 336.582C495.616 336.414 495.133 336.329 494.565 336.329C493.369 336.329 492.434 336.743 491.759 337.571C491.085 338.384 490.747 339.511 490.747 340.952C490.747 342.378 491.077 343.49 491.736 344.287C492.411 345.069 493.346 345.46 494.542 345.46C495.125 345.46 495.608 345.376 495.991 345.207C496.39 345.039 496.819 344.809 497.279 344.517C497.417 344.425 497.548 344.341 497.67 344.264C497.808 344.188 497.916 344.149 497.992 344.149C498.146 344.149 498.268 344.203 498.36 344.31C498.452 344.418 498.498 344.548 498.498 344.701C498.498 344.885 498.445 345.046 498.337 345.184C498.23 345.322 498.023 345.499 497.716 345.713C497.302 346.02 496.796 346.265 496.198 346.449C495.616 346.618 495.033 346.702 494.45 346.702ZM505.343 346.702C504.316 346.702 503.411 346.465 502.629 345.989C501.863 345.514 501.265 344.839 500.835 343.965C500.406 343.091 500.191 342.072 500.191 340.906C500.191 339.741 500.406 338.721 500.835 337.847C501.265 336.973 501.863 336.299 502.629 335.823C503.411 335.348 504.316 335.11 505.343 335.11C506.355 335.11 507.252 335.348 508.034 335.823C508.816 336.299 509.414 336.973 509.828 337.847C510.258 338.721 510.472 339.741 510.472 340.906C510.472 342.072 510.258 343.091 509.828 343.965C509.414 344.839 508.816 345.514 508.034 345.989C507.252 346.465 506.355 346.702 505.343 346.702ZM505.32 345.46C506.501 345.46 507.413 345.069 508.057 344.287C508.701 343.505 509.023 342.378 509.023 340.906C509.023 339.465 508.694 338.346 508.034 337.548C507.39 336.736 506.493 336.329 505.343 336.329C504.178 336.329 503.273 336.736 502.629 337.548C501.985 338.346 501.663 339.465 501.663 340.906C501.663 342.378 501.978 343.505 502.606 344.287C503.235 345.069 504.14 345.46 505.32 345.46ZM525.49 335.11C527.958 335.11 529.193 336.552 529.193 339.434V345.943C529.193 346.158 529.131 346.334 529.009 346.472C528.886 346.595 528.717 346.656 528.503 346.656C528.288 346.656 528.112 346.595 527.974 346.472C527.851 346.334 527.79 346.158 527.79 345.943V339.526C527.79 338.407 527.59 337.602 527.192 337.111C526.793 336.605 526.157 336.352 525.283 336.352C524.286 336.352 523.489 336.69 522.891 337.364C522.308 338.039 522.017 338.944 522.017 340.078V345.943C522.017 346.158 521.955 346.334 521.833 346.472C521.71 346.595 521.541 346.656 521.327 346.656C521.112 346.656 520.936 346.595 520.798 346.472C520.675 346.334 520.614 346.158 520.614 345.943V339.526C520.614 338.407 520.414 337.602 520.016 337.111C519.617 336.605 518.981 336.352 518.107 336.352C517.11 336.352 516.313 336.69 515.715 337.364C515.132 338.039 514.841 338.944 514.841 340.078V345.943C514.841 346.158 514.779 346.334 514.657 346.472C514.534 346.595 514.365 346.656 514.151 346.656C513.936 346.656 513.76 346.595 513.622 346.472C513.499 346.334 513.438 346.158 513.438 345.943V335.869C513.438 335.639 513.499 335.463 513.622 335.34C513.76 335.218 513.936 335.156 514.151 335.156C514.365 335.156 514.526 335.218 514.634 335.34C514.756 335.463 514.818 335.632 514.818 335.846V337.226C515.14 336.536 515.6 336.015 516.198 335.662C516.811 335.294 517.516 335.11 518.314 335.11C520.077 335.11 521.219 335.846 521.741 337.318C522.063 336.628 522.553 336.092 523.213 335.708C523.872 335.31 524.631 335.11 525.49 335.11ZM541.377 344.149C541.515 344.149 541.63 344.211 541.722 344.333C541.83 344.441 541.883 344.571 541.883 344.724C541.883 345.062 541.623 345.391 541.101 345.713C539.997 346.373 538.832 346.702 537.605 346.702C535.903 346.702 534.562 346.189 533.58 345.161C532.599 344.134 532.108 342.723 532.108 340.929C532.108 339.779 532.323 338.767 532.752 337.893C533.197 337.004 533.81 336.322 534.592 335.846C535.39 335.356 536.302 335.11 537.329 335.11C538.771 335.11 539.905 335.578 540.733 336.513C541.577 337.433 541.998 338.706 541.998 340.331C541.998 340.607 541.937 340.814 541.814 340.952C541.692 341.075 541.492 341.136 541.216 341.136H533.557C533.603 342.547 533.971 343.62 534.661 344.356C535.351 345.092 536.325 345.46 537.582 345.46C538.242 345.46 538.794 345.376 539.238 345.207C539.683 345.023 540.158 344.786 540.664 344.494C541.002 344.264 541.239 344.149 541.377 344.149ZM537.329 336.26C536.256 336.26 535.397 336.598 534.753 337.272C534.109 337.947 533.726 338.89 533.603 340.101H540.71C540.68 338.875 540.373 337.932 539.79 337.272C539.208 336.598 538.387 336.26 537.329 336.26ZM555.576 345.483C556.005 345.529 556.22 345.729 556.22 346.081C556.22 346.265 556.151 346.411 556.013 346.518C555.875 346.626 555.652 346.672 555.346 346.656L554.702 346.61C553.536 346.534 552.67 346.181 552.103 345.552C551.551 344.908 551.275 343.935 551.275 342.631V336.513H549.527C549.343 336.513 549.197 336.467 549.09 336.375C548.982 336.268 548.929 336.13 548.929 335.961C548.929 335.793 548.982 335.655 549.09 335.547C549.197 335.44 549.343 335.386 549.527 335.386H551.275V332.534C551.275 332.304 551.336 332.128 551.459 332.005C551.581 331.883 551.75 331.821 551.965 331.821C552.179 331.821 552.348 331.883 552.471 332.005C552.609 332.128 552.678 332.304 552.678 332.534V335.386H555.461C555.66 335.386 555.813 335.44 555.921 335.547C556.028 335.655 556.082 335.793 556.082 335.961C556.082 336.13 556.028 336.268 555.921 336.375C555.813 336.467 555.66 336.513 555.461 336.513H552.678V342.7C552.678 343.651 552.862 344.333 553.23 344.747C553.598 345.146 554.173 345.376 554.955 345.437L555.576 345.483ZM562.686 346.702C561.659 346.702 560.754 346.465 559.972 345.989C559.206 345.514 558.608 344.839 558.178 343.965C557.749 343.091 557.534 342.072 557.534 340.906C557.534 339.741 557.749 338.721 558.178 337.847C558.608 336.973 559.206 336.299 559.972 335.823C560.754 335.348 561.659 335.11 562.686 335.11C563.698 335.11 564.595 335.348 565.377 335.823C566.159 336.299 566.757 336.973 567.171 337.847C567.601 338.721 567.815 339.741 567.815 340.906C567.815 342.072 567.601 343.091 567.171 343.965C566.757 344.839 566.159 345.514 565.377 345.989C564.595 346.465 563.698 346.702 562.686 346.702ZM562.663 345.46C563.844 345.46 564.756 345.069 565.4 344.287C566.044 343.505 566.366 342.378 566.366 340.906C566.366 339.465 566.037 338.346 565.377 337.548C564.733 336.736 563.836 336.329 562.686 336.329C561.521 336.329 560.616 336.736 559.972 337.548C559.328 338.346 559.006 339.465 559.006 340.906C559.006 342.378 559.321 343.505 559.949 344.287C560.578 345.069 561.483 345.46 562.663 345.46ZM588.627 335.11C591.096 335.11 592.33 336.552 592.33 339.434V345.943C592.33 346.158 592.269 346.334 592.146 346.472C592.024 346.595 591.855 346.656 591.64 346.656C591.426 346.656 591.249 346.595 591.111 346.472C590.989 346.334 590.927 346.158 590.927 345.943V339.526C590.927 338.407 590.728 337.602 590.329 337.111C589.931 336.605 589.294 336.352 588.42 336.352C587.424 336.352 586.626 336.69 586.028 337.364C585.446 338.039 585.154 338.944 585.154 340.078V345.943C585.154 346.158 585.093 346.334 584.97 346.472C584.848 346.595 584.679 346.656 584.464 346.656C584.25 346.656 584.073 346.595 583.935 346.472C583.813 346.334 583.751 346.158 583.751 345.943V339.526C583.751 338.407 583.552 337.602 583.153 337.111C582.755 336.605 582.118 336.352 581.244 336.352C580.248 336.352 579.45 336.69 578.852 337.364C578.27 338.039 577.978 338.944 577.978 340.078V345.943C577.978 346.158 577.917 346.334 577.794 346.472C577.672 346.595 577.503 346.656 577.288 346.656C577.074 346.656 576.897 346.595 576.759 346.472C576.637 346.334 576.575 346.158 576.575 345.943V335.869C576.575 335.639 576.637 335.463 576.759 335.34C576.897 335.218 577.074 335.156 577.288 335.156C577.503 335.156 577.664 335.218 577.771 335.34C577.894 335.463 577.955 335.632 577.955 335.846V337.226C578.277 336.536 578.737 336.015 579.335 335.662C579.949 335.294 580.654 335.11 581.451 335.11C583.215 335.11 584.357 335.846 584.878 337.318C585.2 336.628 585.691 336.092 586.35 335.708C587.01 335.31 587.769 335.11 588.627 335.11ZM604.147 335.57C604.27 335.294 604.469 335.156 604.745 335.156C604.914 335.156 605.067 335.218 605.205 335.34C605.343 335.463 605.412 335.609 605.412 335.777C605.412 335.885 605.389 335.984 605.343 336.076L598.834 350.359C598.711 350.62 598.512 350.75 598.236 350.75C598.067 350.75 597.914 350.697 597.776 350.589C597.653 350.482 597.592 350.344 597.592 350.175C597.592 350.083 597.615 349.991 597.661 349.899L599.294 346.334L594.579 336.076C594.533 335.984 594.51 335.892 594.51 335.8C594.51 335.616 594.587 335.463 594.74 335.34C594.909 335.202 595.085 335.133 595.269 335.133C595.56 335.133 595.76 335.271 595.867 335.547L600.007 344.839L604.147 335.57ZM625.623 338.238C625.807 338.238 625.953 338.3 626.06 338.422C626.183 338.53 626.244 338.675 626.244 338.859V344.954C626.244 345.353 626.068 345.629 625.715 345.782C625.087 346.074 624.32 346.304 623.415 346.472C622.526 346.641 621.621 346.725 620.701 346.725C619.122 346.725 617.757 346.403 616.607 345.759C615.473 345.1 614.599 344.149 613.985 342.907C613.387 341.65 613.088 340.155 613.088 338.422C613.088 336.72 613.387 335.248 613.985 334.006C614.583 332.764 615.442 331.814 616.561 331.154C617.681 330.48 619.007 330.142 620.54 330.142C621.614 330.142 622.618 330.319 623.553 330.671C624.489 331.009 625.255 331.499 625.853 332.143C626.053 332.343 626.152 332.565 626.152 332.81C626.152 332.979 626.106 333.125 626.014 333.247C625.922 333.37 625.807 333.431 625.669 333.431C625.547 333.431 625.378 333.355 625.163 333.201C624.351 332.527 623.599 332.059 622.909 331.798C622.219 331.538 621.43 331.407 620.54 331.407C618.639 331.407 617.167 332.021 616.124 333.247C615.097 334.459 614.583 336.184 614.583 338.422C614.583 340.707 615.105 342.455 616.147 343.666C617.19 344.878 618.708 345.483 620.701 345.483C621.468 345.483 622.219 345.422 622.955 345.299C623.707 345.161 624.374 344.97 624.956 344.724V339.434H621.23C621.016 339.434 620.847 339.381 620.724 339.273C620.617 339.166 620.563 339.02 620.563 338.836C620.563 338.652 620.617 338.507 620.724 338.399C620.847 338.292 621.016 338.238 621.23 338.238H625.623ZM630.7 346.656C630.486 346.656 630.309 346.595 630.171 346.472C630.049 346.35 629.987 346.173 629.987 345.943V335.869C629.987 335.639 630.049 335.463 630.171 335.34C630.309 335.218 630.486 335.156 630.7 335.156C630.915 335.156 631.084 335.218 631.206 335.34C631.329 335.463 631.39 335.639 631.39 335.869V345.943C631.39 346.173 631.329 346.35 631.206 346.472C631.084 346.595 630.915 346.656 630.7 346.656ZM630.7 332.557C630.394 332.557 630.141 332.465 629.941 332.281C629.757 332.097 629.665 331.86 629.665 331.568C629.665 331.262 629.757 331.016 629.941 330.832C630.141 330.648 630.394 330.556 630.7 330.556C631.007 330.556 631.252 330.648 631.436 330.832C631.636 331.016 631.735 331.262 631.735 331.568C631.735 331.86 631.636 332.097 631.436 332.281C631.252 332.465 631.007 332.557 630.7 332.557ZM639.939 345.483C640.368 345.529 640.583 345.729 640.583 346.081C640.583 346.265 640.514 346.411 640.376 346.518C640.238 346.626 640.016 346.672 639.709 346.656L639.065 346.61C637.9 346.534 637.033 346.181 636.466 345.552C635.914 344.908 635.638 343.935 635.638 342.631V336.513H633.89C633.706 336.513 633.56 336.467 633.453 336.375C633.346 336.268 633.292 336.13 633.292 335.961C633.292 335.793 633.346 335.655 633.453 335.547C633.56 335.44 633.706 335.386 633.89 335.386H635.638V332.534C635.638 332.304 635.699 332.128 635.822 332.005C635.945 331.883 636.113 331.821 636.328 331.821C636.543 331.821 636.711 331.883 636.834 332.005C636.972 332.128 637.041 332.304 637.041 332.534V335.386H639.824C640.023 335.386 640.177 335.44 640.284 335.547C640.391 335.655 640.445 335.793 640.445 335.961C640.445 336.13 640.391 336.268 640.284 336.375C640.177 336.467 640.023 336.513 639.824 336.513H637.041V342.7C637.041 343.651 637.225 344.333 637.593 344.747C637.961 345.146 638.536 345.376 639.318 345.437L639.939 345.483ZM655.307 330.211C655.537 330.211 655.713 330.28 655.836 330.418C655.958 330.541 656.02 330.717 656.02 330.947V345.92C656.02 346.15 655.958 346.334 655.836 346.472C655.713 346.595 655.537 346.656 655.307 346.656C655.092 346.656 654.923 346.587 654.801 346.449C654.678 346.311 654.617 346.135 654.617 345.92V338.928H644.267V345.92C644.267 346.135 644.205 346.311 644.083 346.449C643.96 346.587 643.791 346.656 643.577 346.656C643.362 346.656 643.186 346.587 643.048 346.449C642.925 346.311 642.864 346.135 642.864 345.92V330.947C642.864 330.733 642.925 330.556 643.048 330.418C643.186 330.28 643.362 330.211 643.577 330.211C643.791 330.211 643.96 330.28 644.083 330.418C644.205 330.556 644.267 330.733 644.267 330.947V337.686H654.617V330.947C654.617 330.733 654.678 330.556 654.801 330.418C654.923 330.28 655.092 330.211 655.307 330.211ZM668.276 335.156C668.491 335.156 668.66 335.225 668.782 335.363C668.92 335.486 668.989 335.655 668.989 335.869V345.943C668.989 346.158 668.92 346.334 668.782 346.472C668.66 346.595 668.491 346.656 668.276 346.656C668.077 346.656 667.916 346.595 667.793 346.472C667.671 346.334 667.609 346.158 667.609 345.943V344.54C667.257 345.246 666.751 345.782 666.091 346.15C665.447 346.518 664.711 346.702 663.883 346.702C662.565 346.702 661.568 346.342 660.893 345.621C660.234 344.885 659.904 343.804 659.904 342.378V335.869C659.904 335.655 659.966 335.486 660.088 335.363C660.226 335.225 660.403 335.156 660.617 335.156C660.832 335.156 661.001 335.225 661.123 335.363C661.246 335.486 661.307 335.655 661.307 335.869V342.286C661.307 343.375 661.522 344.18 661.951 344.701C662.396 345.207 663.086 345.46 664.021 345.46C665.095 345.46 665.953 345.123 666.597 344.448C667.257 343.758 667.586 342.846 667.586 341.711V335.869C667.586 335.655 667.648 335.486 667.77 335.363C667.893 335.225 668.062 335.156 668.276 335.156ZM677.907 335.11C678.889 335.11 679.755 335.348 680.506 335.823C681.258 336.299 681.84 336.973 682.254 337.847C682.668 338.706 682.875 339.71 682.875 340.86C682.875 342.026 682.668 343.053 682.254 343.942C681.84 344.816 681.258 345.499 680.506 345.989C679.755 346.465 678.889 346.702 677.907 346.702C677.003 346.702 676.221 346.511 675.561 346.127C674.902 345.729 674.404 345.154 674.066 344.402V345.92C674.066 346.135 674.005 346.311 673.882 346.449C673.76 346.572 673.591 346.633 673.376 346.633C673.162 346.633 672.985 346.572 672.847 346.449C672.725 346.311 672.663 346.135 672.663 345.92V330.924C672.663 330.71 672.725 330.541 672.847 330.418C672.985 330.28 673.162 330.211 673.376 330.211C673.591 330.211 673.76 330.28 673.882 330.418C674.005 330.541 674.066 330.71 674.066 330.924V337.41C674.404 336.659 674.902 336.092 675.561 335.708C676.221 335.31 677.003 335.11 677.907 335.11ZM677.723 345.46C678.889 345.46 679.793 345.054 680.437 344.241C681.097 343.429 681.426 342.302 681.426 340.86C681.426 339.419 681.097 338.307 680.437 337.525C679.793 336.728 678.881 336.329 677.7 336.329C676.535 336.329 675.638 336.728 675.009 337.525C674.381 338.323 674.066 339.45 674.066 340.906C674.066 342.363 674.381 343.49 675.009 344.287C675.653 345.069 676.558 345.46 677.723 345.46ZM692.609 346.656C692.394 346.656 692.218 346.595 692.08 346.472C691.957 346.334 691.896 346.15 691.896 345.92V331.039C691.896 330.84 691.965 330.671 692.103 330.533C692.256 330.395 692.44 330.326 692.655 330.326H698.037C699.723 330.326 701.027 330.733 701.947 331.545C702.882 332.358 703.35 333.508 703.35 334.995C703.35 336.498 702.882 337.663 701.947 338.491C701.011 339.304 699.708 339.71 698.037 339.71H693.322V345.92C693.322 346.15 693.253 346.334 693.115 346.472C692.992 346.595 692.823 346.656 692.609 346.656ZM697.945 338.491C700.597 338.491 701.924 337.326 701.924 334.995C701.924 332.695 700.597 331.545 697.945 331.545H693.322V338.491H697.945ZM711.283 335.156C711.574 335.141 711.781 335.179 711.904 335.271C712.027 335.363 712.088 335.517 712.088 335.731C712.088 336.115 711.858 336.329 711.398 336.375L710.708 336.444C709.619 336.552 708.807 336.943 708.27 337.617C707.749 338.292 707.488 339.082 707.488 339.986V345.943C707.488 346.173 707.427 346.35 707.304 346.472C707.181 346.595 707.013 346.656 706.798 346.656C706.583 346.656 706.407 346.595 706.269 346.472C706.146 346.35 706.085 346.173 706.085 345.943V335.869C706.085 335.639 706.146 335.463 706.269 335.34C706.407 335.218 706.583 335.156 706.798 335.156C706.997 335.156 707.158 335.218 707.281 335.34C707.404 335.463 707.465 335.632 707.465 335.846V337.341C708.094 336.023 709.259 335.302 710.961 335.179L711.283 335.156ZM718.093 346.702C717.066 346.702 716.161 346.465 715.379 345.989C714.613 345.514 714.015 344.839 713.585 343.965C713.156 343.091 712.941 342.072 712.941 340.906C712.941 339.741 713.156 338.721 713.585 337.847C714.015 336.973 714.613 336.299 715.379 335.823C716.161 335.348 717.066 335.11 718.093 335.11C719.105 335.11 720.002 335.348 720.784 335.823C721.566 336.299 722.164 336.973 722.578 337.847C723.008 338.721 723.222 339.741 723.222 340.906C723.222 342.072 723.008 343.091 722.578 343.965C722.164 344.839 721.566 345.514 720.784 345.989C720.002 346.465 719.105 346.702 718.093 346.702ZM718.07 345.46C719.251 345.46 720.163 345.069 720.807 344.287C721.451 343.505 721.773 342.378 721.773 340.906C721.773 339.465 721.444 338.346 720.784 337.548C720.14 336.736 719.243 336.329 718.093 336.329C716.928 336.329 716.023 336.736 715.379 337.548C714.735 338.346 714.413 339.465 714.413 340.906C714.413 342.378 714.728 343.505 715.356 344.287C715.985 345.069 716.89 345.46 718.07 345.46ZM734.192 335.386C734.376 335.386 734.521 335.44 734.629 335.547C734.736 335.655 734.79 335.793 734.79 335.961V345.943C734.79 346.173 734.721 346.35 734.583 346.472C734.46 346.595 734.299 346.656 734.1 346.656C733.885 346.656 733.709 346.595 733.571 346.472C733.448 346.35 733.387 346.173 733.387 345.943V336.513H728.143V345.943C728.143 346.158 728.074 346.334 727.936 346.472C727.798 346.595 727.629 346.656 727.43 346.656C727.215 346.656 727.046 346.595 726.924 346.472C726.801 346.35 726.74 346.173 726.74 345.943V336.513H724.992C724.808 336.513 724.662 336.467 724.555 336.375C724.447 336.268 724.394 336.13 724.394 335.961C724.394 335.793 724.447 335.655 724.555 335.547C724.662 335.44 724.808 335.386 724.992 335.386H726.74V334.834C726.74 333.485 727.062 332.427 727.706 331.66C728.365 330.878 729.316 330.441 730.558 330.349L731.156 330.303C731.738 330.257 732.03 330.434 732.03 330.832C732.03 331.2 731.807 331.407 731.363 331.453L730.788 331.499C729.914 331.576 729.254 331.86 728.81 332.35C728.365 332.826 728.143 333.554 728.143 334.535V335.386H734.192ZM734.1 330.556C734.406 330.556 734.652 330.648 734.836 330.832C735.035 331.016 735.135 331.262 735.135 331.568C735.135 331.86 735.035 332.097 734.836 332.281C734.652 332.465 734.406 332.557 734.1 332.557C733.793 332.557 733.54 332.465 733.341 332.281C733.157 332.097 733.065 331.86 733.065 331.568C733.065 331.262 733.157 331.016 733.341 330.832C733.54 330.648 733.793 330.556 734.1 330.556ZM739.187 346.656C738.972 346.656 738.796 346.595 738.658 346.472C738.535 346.35 738.474 346.173 738.474 345.943V330.924C738.474 330.694 738.535 330.518 738.658 330.395C738.796 330.273 738.972 330.211 739.187 330.211C739.386 330.211 739.547 330.273 739.67 330.395C739.808 330.518 739.877 330.694 739.877 330.924V345.943C739.877 346.173 739.808 346.35 739.67 346.472C739.547 346.595 739.386 346.656 739.187 346.656ZM752.128 344.149C752.266 344.149 752.381 344.211 752.473 344.333C752.581 344.441 752.634 344.571 752.634 344.724C752.634 345.062 752.374 345.391 751.852 345.713C750.748 346.373 749.583 346.702 748.356 346.702C746.654 346.702 745.313 346.189 744.331 345.161C743.35 344.134 742.859 342.723 742.859 340.929C742.859 339.779 743.074 338.767 743.503 337.893C743.948 337.004 744.561 336.322 745.343 335.846C746.141 335.356 747.053 335.11 748.08 335.11C749.522 335.11 750.656 335.578 751.484 336.513C752.328 337.433 752.749 338.706 752.749 340.331C752.749 340.607 752.688 340.814 752.565 340.952C752.443 341.075 752.243 341.136 751.967 341.136H744.308C744.354 342.547 744.722 343.62 745.412 344.356C746.102 345.092 747.076 345.46 748.333 345.46C748.993 345.46 749.545 345.376 749.989 345.207C750.434 345.023 750.909 344.786 751.415 344.494C751.753 344.264 751.99 344.149 752.128 344.149ZM748.08 336.26C747.007 336.26 746.148 336.598 745.504 337.272C744.86 337.947 744.477 338.89 744.354 340.101H751.461C751.431 338.875 751.124 337.932 750.541 337.272C749.959 336.598 749.138 336.26 748.08 336.26Z" fill="white"/>
<path d="M161.011 102.093C112.194 106.204 109.752 137.33 131.11 143.714C131.288 143.768 131.479 143.795 131.665 143.795H428.523C429.136 143.795 429.736 143.49 430.108 143.002C456.24 108.729 414.748 92.9284 387.584 96.8813C386.463 97.0445 385.406 96.2721 385.18 95.1619C378.427 62.0088 333.492 58.8022 311.172 63.7478C310.361 63.9273 309.526 63.6088 309.089 62.9038C304.286 55.1646 303.848 46.849 275.159 37.7228C233.429 24.4487 213.373 47.373 211.865 64.5452C211.741 65.9491 210.332 67.0202 208.935 66.8333C202.366 65.9541 191.361 67.5126 181.808 69.9102C163.44 74.5199 160.608 90.2993 163.081 98.743C163.509 100.207 162.531 101.965 161.011 102.093Z" fill="url(#paint8_linear)"/>
<path d="M105.068 154.865C95.6053 162.399 105.068 167.689 116.825 167.689C134.826 167.689 225.749 168.731 239.841 168.731C244.778 168.731 251.485 169.919 253.692 162.629C257.485 150.099 239.841 143.965 230.952 143.965C216.04 121.283 155.249 118.077 142.919 139.316C121.7 137.793 110.118 139.316 105.068 154.865Z" fill="url(#paint9_linear)"/>
<path d="M1040.03 227.131C991.217 231.243 988.775 262.369 1010.13 268.753C1010.31 268.806 1010.5 268.834 1010.69 268.834H1307.55C1308.16 268.834 1308.76 268.528 1309.13 268.041C1335.26 233.768 1293.77 217.967 1266.61 221.92C1265.49 222.083 1264.43 221.311 1264.2 220.201C1257.45 187.048 1212.51 183.841 1190.19 188.787C1189.38 188.966 1188.55 188.648 1188.11 187.943C1183.31 180.203 1182.87 171.888 1154.18 162.762C1112.45 149.487 1092.4 172.412 1090.89 189.584C1090.76 190.988 1089.35 192.059 1087.96 191.872C1081.39 190.993 1070.38 192.551 1060.83 194.949C1042.46 199.559 1039.63 215.338 1042.1 223.782C1042.53 225.246 1041.55 227.003 1040.03 227.131Z" fill="url(#paint10_linear)"/>
<path d="M698.345 111.627C738.643 115.022 740.585 138.806 722.778 143.726C722.612 143.772 722.435 143.795 722.263 143.795H473.078C472.494 143.795 471.917 143.517 471.545 143.066C449.886 116.771 484.291 104.593 507.075 107.507C508.177 107.648 509.208 106.9 509.464 105.818C515.421 80.6337 552.695 78.1507 571.39 81.912C572.162 82.0673 572.955 81.778 573.39 81.1216C577.321 75.1886 577.903 68.8167 601.775 61.8301C636.299 51.7255 653.159 68.7655 654.865 81.9607C655.043 83.3401 656.419 84.4209 657.803 84.278C663.36 83.7044 672.347 84.8947 680.175 86.7021C694.938 90.111 697.75 101.425 696.145 108.11C695.78 109.63 696.787 111.496 698.345 111.627Z" fill="url(#paint11_linear)"/>
<path d="M702.467 158.089C710.414 163.911 702.467 167.999 692.593 167.999C677.475 167.999 601.114 168.804 589.279 168.804C585.132 168.804 579.499 169.722 577.646 164.089C574.46 154.406 589.279 149.667 596.744 149.667C609.267 132.14 660.322 129.662 670.678 146.074C688.499 144.898 698.225 146.074 702.467 158.089Z" fill="url(#paint12_linear)"/>
<path d="M857.738 305.951C892.915 310.224 894.735 340.963 879.354 347.464C879.124 347.561 878.872 347.608 878.622 347.608H662.398C661.682 347.608 661.005 347.203 660.66 346.576C642.085 312.905 671.295 297.155 691.092 300.553C692.291 300.759 693.463 299.933 693.648 298.73C698.636 266.262 730.508 262.721 746.987 267.361C747.944 267.63 748.978 267.214 749.378 266.303C752.719 258.681 753.394 250.5 773.978 241.536C804.259 228.35 818.916 250.884 820.188 268.017C820.299 269.508 821.936 270.649 823.424 270.495C828.288 269.993 835.686 271.496 842.168 273.723C855.794 278.405 857.715 294.606 855.76 302.945C855.442 304.302 856.354 305.783 857.738 305.951Z" fill="url(#paint13_linear)"/>
<path d="M862.602 322.417C869.515 329.951 862.602 335.241 854.014 335.241C840.865 335.241 774.449 336.283 764.155 336.283C760.549 336.283 755.649 337.471 754.037 330.181C751.266 317.651 764.155 311.517 770.648 311.517C781.54 288.835 825.946 285.629 834.953 306.868C850.454 305.345 858.913 306.868 862.602 322.417Z" fill="url(#paint14_linear)"/>
<defs>
<linearGradient id="paint0_linear" x1="600" y1="33.5125" x2="600" y2="526" gradientUnits="userSpaceOnUse">
<stop stop-color="#265DF2"/>
<stop offset="1" stop-color="#87A6FF"/>
</linearGradient>
<linearGradient id="paint1_linear" x1="628.469" y1="402.625" x2="640.973" y2="522.662" gradientUnits="userSpaceOnUse">
<stop stop-color="white" stop-opacity="0.08"/>
<stop offset="0.744792" stop-color="white" stop-opacity="0"/>
<stop offset="1" stop-color="white" stop-opacity="0"/>
</linearGradient>
<linearGradient id="paint2_linear" x1="936.098" y1="33.7605" x2="952.004" y2="154.265" gradientUnits="userSpaceOnUse">
<stop stop-color="white" stop-opacity="0.12"/>
<stop offset="0.744792" stop-color="white" stop-opacity="0"/>
<stop offset="1" stop-color="white" stop-opacity="0"/>
</linearGradient>
<linearGradient id="paint3_linear" x1="839.218" y1="107.533" x2="850.503" y2="205.116" gradientUnits="userSpaceOnUse">
<stop stop-color="white" stop-opacity="0.08"/>
<stop offset="0.662532" stop-color="#E1E1E1" stop-opacity="0"/>
<stop offset="1" stop-color="#D8D8D8" stop-opacity="0"/>
</linearGradient>
<linearGradient id="paint4_linear" x1="95.2768" y1="213.816" x2="80.3276" y2="334.569" gradientUnits="userSpaceOnUse">
<stop stop-color="white" stop-opacity="0.12"/>
<stop offset="0.744792" stop-color="white" stop-opacity="0"/>
<stop offset="1" stop-color="white" stop-opacity="0"/>
</linearGradient>
<linearGradient id="paint5_linear" x1="191.904" y1="275.085" x2="181.303" y2="372.824" gradientUnits="userSpaceOnUse">
<stop stop-color="white" stop-opacity="0.08"/>
<stop offset="0.662532" stop-color="#E1E1E1" stop-opacity="0"/>
<stop offset="1" stop-color="#D8D8D8" stop-opacity="0"/>
</linearGradient>
<linearGradient id="paint6_linear" x1="216.466" y1="345.107" x2="240.224" y2="551.421" gradientUnits="userSpaceOnUse">
<stop stop-color="white" stop-opacity="0.18"/>
<stop offset="0.662532" stop-color="#E1E1E1" stop-opacity="0"/>
<stop offset="1" stop-color="#D8D8D8" stop-opacity="0"/>
</linearGradient>
<linearGradient id="paint7_linear" x1="1051.73" y1="260.081" x2="1040.96" y2="542.199" gradientUnits="userSpaceOnUse">
<stop stop-color="#EDEDED" stop-opacity="0.15"/>
<stop offset="0.792609" stop-color="#EDEDED" stop-opacity="0"/>
<stop offset="1" stop-color="#EDEDED" stop-opacity="0"/>
</linearGradient>
<linearGradient id="paint8_linear" x1="284.23" y1="33.7605" x2="281.221" y2="143.873" gradientUnits="userSpaceOnUse">
<stop stop-color="#EDEDED" stop-opacity="0.15"/>
<stop offset="1" stop-color="#EDEDED" stop-opacity="0"/>
</linearGradient>
<linearGradient id="paint9_linear" x1="169.293" y1="125.039" x2="173.033" y2="170.27" gradientUnits="userSpaceOnUse">
<stop stop-color="white" stop-opacity="0.11"/>
<stop offset="0.807292" stop-color="#E0E0E0" stop-opacity="0"/>
<stop offset="1" stop-color="#D8D8D8" stop-opacity="0"/>
</linearGradient>
<linearGradient id="paint10_linear" x1="1163.25" y1="158.799" x2="1160.24" y2="268.912" gradientUnits="userSpaceOnUse">
<stop stop-color="#EDEDED" stop-opacity="0.15"/>
<stop offset="1" stop-color="#EDEDED" stop-opacity="0"/>
</linearGradient>
<linearGradient id="paint11_linear" x1="594.156" y1="58.7682" x2="596.295" y2="143.865" gradientUnits="userSpaceOnUse">
<stop stop-color="#EDEDED" stop-opacity="0.15"/>
<stop offset="1" stop-color="#EDEDED" stop-opacity="0"/>
</linearGradient>
<linearGradient id="paint12_linear" x1="648.528" y1="135.042" x2="645.866" y2="170.03" gradientUnits="userSpaceOnUse">
<stop stop-color="white" stop-opacity="0.11"/>
<stop offset="0.807292" stop-color="#E0E0E0" stop-opacity="0"/>
<stop offset="1" stop-color="#D8D8D8" stop-opacity="0"/>
</linearGradient>
<linearGradient id="paint13_linear" x1="767.351" y1="237.574" x2="771.468" y2="347.614" gradientUnits="userSpaceOnUse">
<stop stop-color="#EDEDED" stop-opacity="0.15"/>
<stop offset="1" stop-color="#EDEDED" stop-opacity="0"/>
</linearGradient>
<linearGradient id="paint14_linear" x1="815.688" y1="292.591" x2="810.598" y2="337.555" gradientUnits="userSpaceOnUse">
<stop stop-color="white" stop-opacity="0.11"/>
<stop offset="0.807292" stop-color="#E0E0E0" stop-opacity="0"/>
<stop offset="1" stop-color="#D8D8D8" stop-opacity="0"/>
</linearGradient>
</defs>
</svg>
